<?xml version="1.0" encoding="UTF-8"?>
<svg version="1.1" xmlns="http://www.w3.org/2000/svg" width="1024" height="1024">
<path d="M0 0 C1.49648827 -0.00472824 1.49648827 -0.00472824 3.02320862 -0.009552 C4.64355263 -0.00651566 4.64355263 -0.00651566 6.29663086 -0.00341797 C7.40123154 -0.00437469 8.50583221 -0.00533142 9.64390564 -0.00631714 C11.98167986 -0.00699847 14.31945596 -0.00514743 16.65722656 -0.00097656 C20.24996149 0.00437737 23.84257169 -0.00092577 27.43530273 -0.00732422 C29.70157905 -0.00666353 31.9678553 -0.00538256 34.23413086 -0.00341797 C35.85751122 -0.00645432 35.85751122 -0.00645432 37.51368713 -0.009552 C38.50819382 -0.00639984 39.5027005 -0.00324768 40.52734375 0 C41.40733536 0.00079559 42.28732697 0.00159119 43.19398499 0.00241089 C45.19897461 0.12939453 45.19897461 0.12939453 46.19897461 1.12939453 C47.75208537 1.38021797 49.31452805 1.57370803 50.87866211 1.74267578 C51.86181396 1.85442139 52.84496582 1.96616699 53.85791016 2.08129883 C54.91921143 2.20029541 55.9805127 2.31929199 57.07397461 2.44189453 C65.91108337 3.47607349 74.55277592 4.84512797 83.2199707 6.85913086 C86.20847251 7.54613122 88.95480964 8.13040487 92.03100586 8.11767578 C94.19897461 8.12939453 94.19897461 8.12939453 97.19897461 10.12939453 C98.83348725 10.61284193 100.46982278 11.09111776 102.11547852 11.53515625 C122.13200437 17.24411148 141.19484508 26.16469848 159.32397461 36.25439453 C160.35498291 36.82818848 161.38599121 37.40198242 162.44824219 37.99316406 C168.97198478 41.69363965 175.13817706 45.71477123 181.19897461 50.12939453 C181.89249023 50.62922852 182.58600586 51.1290625 183.30053711 51.64404297 C191.18357358 57.36272905 198.72719102 63.24835525 205.83569336 69.91455078 C207.85008993 71.80242327 209.90283335 73.59925739 212.01147461 75.37939453 C221.99650204 84.09061188 231.06078465 93.6824982 239.19897461 104.12939453 C240.07754934 105.21925512 240.95784323 106.30773145 241.83959961 107.39501953 C270.94934526 143.50318627 289.31397213 185.94197734 297.01147461 231.62939453 C297.21869141 232.85746826 297.4259082 234.08554199 297.6394043 235.35083008 C301.95261538 262.33022 301.4085006 290.18246931 297.19897461 317.12939453 C297.0486377 318.12503418 296.89830078 319.12067383 296.7434082 320.14648438 C292.97413157 344.15164907 285.31666011 369.44716945 274.19897461 391.12939453 C273.79710937 391.91556152 273.39524414 392.70172852 272.98120117 393.51171875 C267.19192514 404.69487468 261.19061462 416.13775452 252.19897461 425.12939453 C247.00030098 425.09091625 244.18935249 423.81140414 240.46800232 420.20048523 C239.92434525 419.64311172 239.38068817 419.08573822 238.82055664 418.51147461 C238.22617294 417.92599854 237.63178925 417.34052246 237.01939392 416.73730469 C235.06665848 414.80580887 233.13649736 412.85340537 231.20678711 410.89892578 C229.85250138 409.54614293 228.49725175 408.19432443 227.14108276 406.84342957 C224.30561481 404.01228983 221.48100251 401.17086415 218.66381836 398.3215332 C215.05419761 394.67211431 211.42054764 391.0477917 207.77865791 387.4306078 C204.97784249 384.64398134 202.18929463 381.84533614 199.40438461 379.04282188 C198.06908566 377.70167806 196.73020648 376.36408896 195.38769913 375.0301609 C193.51298704 373.1634489 191.65519216 371.28137868 189.80102539 369.39428711 C188.9673217 368.57340858 188.9673217 368.57340858 188.11677551 367.73594666 C184.81862548 364.33618088 183.35192277 361.89965784 183.19897461 357.12939453 C184.16772461 354.28955078 184.16772461 354.28955078 185.69897461 351.19189453 C204.67319926 309.95705991 205.57402151 260.57497953 190.19897461 218.12939453 C181.08324597 195.03455748 168.26517849 175.13895641 151.19897461 157.12939453 C150.3572168 156.23478516 149.51545898 155.34017578 148.64819336 154.41845703 C135.20016762 140.52281249 119.33827498 129.74196285 101.86694336 121.53955078 C99.19897461 120.12939453 99.19897461 120.12939453 98.19897461 118.12939453 C96.14774104 117.41146278 94.09129231 116.70608766 92.01538086 116.06298828 C87.62757592 114.60850093 83.38397158 112.79412445 79.11694336 111.02001953 C75.32131922 109.86151578 73.63152237 110.41312065 70.19897461 112.12939453 C69.86897461 110.80939453 69.53897461 109.48939453 69.19897461 108.12939453 C58.64315026 105.47500595 48.56556631 103.65603994 37.67553711 103.30517578 C34.19897461 103.12939453 34.19897461 103.12939453 32.26733398 102.62890625 C-0.24663391 94.77673695 -43.28581673 110.19040284 -70.53051758 126.70166016 C-87.2712208 136.82311368 -87.2712208 136.82311368 -99.80102539 151.12939453 C-100.50227539 151.50064453 -101.20352539 151.87189453 -101.92602539 152.25439453 C-106.02910231 154.93031426 -108.70421414 158.36330906 -111.80102539 162.12939453 C-112.69932702 163.18159388 -113.59777491 164.23366836 -114.49633789 165.28564453 C-144.97621431 201.5444407 -158.88054673 248.22382526 -155.58276367 295.24121094 C-154.48768674 307.071506 -152.28588107 318.35870678 -148.78930664 329.70751953 C-147.80102539 333.12939453 -147.80102539 333.12939453 -147.80102539 336.12939453 C-147.14102539 336.45939453 -146.48102539 336.78939453 -145.80102539 337.12939453 C-145.23071289 338.81689453 -145.23071289 338.81689453 -144.67602539 341.12939453 C-139.55013112 359.03177155 -128.91152446 375.25397832 -117.51586914 389.77392578 C-115.80102539 392.12939453 -115.80102539 392.12939453 -114.80102539 395.12939453 C-114.14102539 395.12939453 -113.48102539 395.12939453 -112.80102539 395.12939453 C-111.56665039 396.38720703 -111.56665039 396.38720703 -110.05102539 398.25439453 C-81.60880997 431.45656749 -41.07837192 452.3997233 2.64038086 455.81298828 C33.56441224 457.78185007 64.39356989 454.87660312 93.04272461 442.42626953 C96.41356179 441.04122257 99.63445005 439.90170819 103.19897461 439.12939453 C106.997289 441.50334103 109.47505313 444.42301006 112.36694336 447.80126953 C116.2297945 452.2305508 120.333545 456.37399908 124.51147461 460.50439453 C125.28402588 461.27315918 126.05657715 462.04192383 126.85253906 462.83398438 C129.29891643 465.26825218 131.74851601 467.69923559 134.19897461 470.12939453 C137.43111149 473.33475631 140.65979996 476.54353526 143.88647461 479.75439453 C144.98052612 480.83599854 144.98052612 480.83599854 146.09667969 481.93945312 C150.10339331 485.92719513 153.905239 490.01910307 157.5953064 494.3008728 C159.83648134 496.85628735 162.20485694 499.22996172 164.62475586 501.61767578 C165.09842087 502.08755417 165.57208588 502.55743256 166.06010437 503.04154968 C167.541416 504.51086156 169.0259968 505.97679564 170.51147461 507.44189453 C172.48964648 509.39340726 174.46441918 511.34827145 176.43725586 513.30517578 C177.30390869 514.16022705 178.17056152 515.01527832 179.06347656 515.89624023 C181.509559 518.45418193 183.05174875 520.25120522 183.64428711 523.78564453 C183.00789741 528.56414965 180.73034287 531.67806222 178.07397461 535.62939453 C176.96039936 537.33623401 175.84712994 539.04327304 174.73413086 540.75048828 C174.15034668 541.63591309 173.5665625 542.52133789 172.96508789 543.43359375 C170.67386191 546.93092817 168.44268037 550.4644635 166.21142578 554.00024414 C158.3724659 566.41221207 150.32441747 578.68660869 142.27319336 590.96142578 C140.31562972 593.95122637 138.36488787 596.94531275 136.41772461 599.94189453 C129.45383469 610.65806819 122.42103642 621.32525805 115.31604004 631.94830322 C109.73352938 640.29631023 104.20880015 648.67996463 98.72021484 657.08999634 C90.96278498 668.975073 83.07373405 680.75761537 75.03149414 692.45263672 C73.10510946 695.26650318 71.19529805 698.09107071 69.28881836 700.91845703 C39.49368635 745.0584316 39.49368635 745.0584316 25.32397461 748.25439453 C17.84492478 748.67554491 11.95118541 743.98397098 6.52416992 739.34887695 C-1.78502026 731.8931501 -8.32794683 723.17527829 -14.80102539 714.12939453 C-15.34839355 713.36626953 -15.89576172 712.60314453 -16.4597168 711.81689453 C-24.44340139 700.63461089 -32.15061449 689.25850034 -39.8527832 677.88134766 C-42.8659855 673.43156831 -45.88734077 668.99219599 -48.99243164 664.60595703 C-55.36787247 655.53436226 -61.41574981 646.23303158 -67.54907227 636.99707031 C-75.84337858 624.46776745 -75.84337858 624.46776745 -84.40332031 612.11962891 C-86.51923321 609.10671678 -88.52914608 606.02597648 -90.53930664 602.94189453 C-91.81008588 601.00276514 -91.81008588 601.00276514 -93.80102539 599.12939453 C-94.73688508 597.49216822 -95.67053182 595.8536274 -96.59155273 594.20800781 C-98.91701553 590.21144136 -101.53568765 586.40350838 -104.11352539 582.56689453 C-104.71656494 581.6680957 -105.31960449 580.76929688 -105.94091797 579.84326172 C-107.22410123 577.93308532 -108.50855815 576.023764 -109.79418945 574.11523438 C-111.85499778 571.04909255 -113.90243241 567.974279 -115.94946289 564.89892578 C-117.29525707 562.89203973 -118.64159618 560.88551898 -119.98852539 558.87939453 C-120.6237915 557.920896 -121.25905762 556.96239746 -121.91357422 555.97485352 C-122.80725708 554.65142944 -122.80725708 554.65142944 -123.71899414 553.30126953 C-124.24259521 552.51848633 -124.76619629 551.73570312 -125.30566406 550.92919922 C-126.76785705 548.8473376 -126.76785705 548.8473376 -129.80102539 548.12939453 C-129.85774414 547.47197266 -129.91446289 546.81455078 -129.97290039 546.13720703 C-131.15696495 541.83659518 -133.53174602 538.64888876 -136.05102539 535.00439453 C-136.84814941 533.83046143 -136.84814941 533.83046143 -137.66137695 532.6328125 C-139.3664604 530.12601097 -141.08305837 527.6273802 -142.80102539 525.12939453 C-143.93695739 523.46828849 -145.07237845 521.80683292 -146.20727539 520.14501953 C-148.41205372 516.91860846 -150.62106784 513.69515167 -152.83227539 510.47314453 C-155.86254614 506.05017359 -158.83414611 501.5910392 -161.79541016 497.12158203 C-163.78519434 494.15301295 -165.81580769 491.21723436 -167.85961914 488.28564453 C-173.20517195 480.5882214 -178.41829465 472.80379023 -183.61352539 465.00439453 C-184.33661392 463.9190593 -184.33661392 463.9190593 -185.0743103 462.8117981 C-204.71672189 433.30689036 -204.71672189 433.30689036 -213.03857422 418.02368164 C-214.45950774 415.42356711 -215.69323123 413.23718869 -217.80102539 411.12939453 C-218.48211153 409.87647136 -219.11592703 408.59746246 -219.71899414 407.30517578 C-220.08259033 406.53189941 -220.44618652 405.75862305 -220.82080078 404.96191406 C-221.2061499 404.13030762 -221.59149902 403.29870117 -221.98852539 402.44189453 C-222.38998779 401.58192871 -222.7914502 400.72196289 -223.20507812 399.8359375 C-224.02258993 398.08461378 -224.83875803 396.33266217 -225.65356445 394.58007812 C-226.64185996 392.46933124 -227.64767947 390.36920497 -228.66821289 388.27392578 C-259.0933555 325.11020805 -262.53754438 254.56774482 -240.80102539 188.12939453 C-240.53064453 187.30036621 -240.26026367 186.47133789 -239.98168945 185.6171875 C-231.95144872 161.4822351 -220.04019358 138.85832328 -204.88476562 118.45336914 C-203.0689373 116.00022435 -201.77500911 114.05134568 -200.80102539 111.12939453 C-199.6973091 109.99118711 -198.58551758 108.86005658 -197.44165039 107.76220703 C-195.39518982 105.72549151 -193.47839605 103.59165411 -191.55102539 101.44189453 C-190.76211914 100.56275391 -189.97321289 99.68361328 -189.16040039 98.77783203 C-187.70486152 97.14396555 -186.25556781 95.50448053 -184.81665039 93.85595703 C-174.10796008 81.69453741 -162.68475662 69.98611108 -149.80102539 60.12939453 C-148.78911133 59.32373047 -147.77719727 58.51806641 -146.73461914 57.68798828 C-139.0798854 51.62256515 -131.12185019 46.23442072 -122.80102539 41.12939453 C-122.16213379 40.73252441 -121.52324219 40.3356543 -120.86499023 39.92675781 C-86.44614051 18.63352588 -49.12224476 6.6451261 -9.12573242 1.51489258 C-5.78493861 0.96090041 -3.50645493 0.00316729 0 0 Z " fill="#24C9C8" transform="translate(489.801025390625,151.87060546875)"/>
<path d="M0 0 C1.93625244 -0.00858032 1.93625244 -0.00858032 3.91162109 -0.01733398 C43.77336058 0.2856132 77.37076751 17.1101606 104.95703125 45.0546875 C131.24624108 72.91882696 144.20502492 109.76025416 143.5 147.75 C142.67963663 171.47490852 135.74536623 196.71142375 122.18359375 216.3671875 C121.06597782 218.24385244 121.06597782 218.24385244 121.49404526 220.21392918 C122.39847624 222.72467798 123.5230662 223.95518326 125.41168213 225.83494568 C126.08737747 226.51476501 126.76307281 227.19458435 127.45924377 227.89500427 C128.20520309 228.63017776 128.95116241 229.36535126 129.71972656 230.12280273 C130.50188034 230.90539459 131.28403412 231.68798645 132.08988953 232.49429321 C134.68308862 235.08539877 137.28676418 237.66570621 139.890625 240.24609375 C141.69391117 242.04378336 143.49653511 243.84213749 145.29852295 245.64112854 C149.56528634 249.89759806 153.8386576 254.14732181 158.11529994 258.39385706 C162.96323367 263.20838519 167.80277139 268.03131441 172.64156008 272.85503089 C180.92070308 281.1081052 189.20608096 289.35487532 197.49864197 297.59446716 C201.08822765 301.16139906 204.67418551 304.73176189 208.25 308.3125 C209.095625 309.158125 209.94125 310.00375 210.8125 310.875 C211.616875 311.679375 212.42125 312.48375 213.25 313.3125 C214.3946875 314.3953125 214.3946875 314.3953125 215.5625 315.5 C217.25 317.3125 217.25 317.3125 217.25 319.3125 C218.11963379 319.69535156 218.11963379 319.69535156 219.00683594 320.0859375 C221.48015312 321.43834777 223.14602109 322.94982524 225.140625 324.9375 C225.84960938 325.64390625 226.55859375 326.3503125 227.2890625 327.078125 C228.01867187 327.81546875 228.74828125 328.5528125 229.5 329.3125 C230.24507812 330.04984375 230.99015625 330.7871875 231.7578125 331.546875 C232.46164062 332.25328125 233.16546875 332.9596875 233.890625 333.6875 C234.53547852 334.33460938 235.18033203 334.98171875 235.84472656 335.6484375 C237.25 337.3125 237.25 337.3125 237.25 339.3125 C237.91 339.3125 238.57 339.3125 239.25 339.3125 C243.72580103 344.99926046 246.79954197 350.98111058 246.25 358.3125 C244.33928374 368.46703238 239.39906593 375.13703597 231.25 381.3125 C226.70863422 384.03551016 222.41200143 384.0126849 217.25 383.3125 C206.90627912 379.96743485 198.74633607 371.86138942 191.25 364.3125 C190.49405517 363.5519462 189.73811033 362.7913924 188.95925808 362.00779152 C188.17263318 361.21467253 187.38600828 360.42155354 186.57554626 359.60440063 C185.66572495 358.68735352 184.75590363 357.7703064 183.81851196 356.82546997 C183.33431919 356.33739994 182.85012642 355.84932991 182.35126114 355.34646988 C171.18062433 344.08721306 159.99547222 332.84246613 148.80223751 321.60567665 C142.33457731 315.11216927 135.87173041 308.613999 129.41967773 302.10498047 C123.78197227 296.41752576 118.13560729 290.73883955 112.47856146 285.07061899 C109.48628525 282.07181613 106.4985905 279.06874517 103.52125359 276.0551033 C100.72564675 273.22567424 97.91865491 270.40807404 95.10231972 267.59928131 C94.06916782 266.56474931 93.04032167 265.52589734 92.01607513 264.48254776 C90.62142088 263.06315841 89.20988777 261.66041179 87.79747009 260.25869751 C87.01122222 259.46784067 86.22497435 258.67698383 85.41490078 257.86216164 C83.40394638 256.07352337 83.40394638 256.07352337 81.12618351 256.46796227 C78.45276125 257.67136586 76.12711862 259.24964783 73.6875 260.875 C43.66121733 280.04498812 5.70403736 284.48456492 -28.75 277.3125 C-64.01637355 268.97968385 -96.37748536 248.49964241 -115.75 217.3125 C-136.66464866 182.9070307 -144.15934163 144.91668831 -134.625 105.3125 C-129.79995109 86.48930539 -121.31728627 68.20981568 -108.75 53.3125 C-107.87072195 52.24900521 -106.99184575 51.18517809 -106.11328125 50.12109375 C-105.15989471 48.97569559 -104.20546734 47.83116298 -103.25 46.6875 C-102.81131592 46.1608374 -102.37263184 45.6341748 -101.9206543 45.09155273 C-81.35346292 20.78556005 -50.48148729 3.63254481 -18.58496094 0.50292969 C-12.39578847 0.08719127 -6.20069824 0.0227838 0 0 Z M-59.75 73.3125 C-59.75 73.9725 -59.75 74.6325 -59.75 75.3125 C-60.41 75.3125 -61.07 75.3125 -61.75 75.3125 C-61.75 75.9725 -61.75 76.6325 -61.75 77.3125 C-62.41 77.3125 -63.07 77.3125 -63.75 77.3125 C-63.75 77.9725 -63.75 78.6325 -63.75 79.3125 C-64.41 79.3125 -65.07 79.3125 -65.75 79.3125 C-76.93434497 92.24792929 -85.03040605 107.33848261 -87.75 124.3125 C-87.87890625 125.03953125 -88.0078125 125.7665625 -88.140625 126.515625 C-91.40824359 149.04499527 -86.96355205 172.5755001 -73.75 191.3125 C-57.50876983 212.78600729 -37.0962201 226.19946345 -10.3125 230.0625 C15.2930038 232.06598408 40.15971651 227.51901677 60.4453125 210.79296875 C62.25 209.3125 62.25 209.3125 65.25 207.3125 C65.25 206.6525 65.25 205.9925 65.25 205.3125 C65.82234375 205.08046875 66.3946875 204.8484375 66.984375 204.609375 C80.40259279 196.92860206 88.20242214 175.49758943 91.99609375 161.57421875 C96.89341711 138.23593985 92.77918823 113.34098638 80.125 93.1875 C66.3358739 72.17972643 45.79728086 57.28420216 21.3125 51.4375 C-7.46221396 46.34891901 -38.2157743 52.58818987 -59.75 73.3125 Z " fill="#24C9C7" transform="translate(509.75,290.6875)"/>
<path d="M0 0 C16.09912152 6.95451311 31.35322214 25.90360135 41 40 C41.41088867 40.5878125 41.82177734 41.175625 42.24511719 41.78125 C57 62.90680928 57 62.90680928 57 69 C56.34 69 55.68 69 55 69 C54.55011719 68.1028125 54.10023438 67.205625 53.63671875 66.28125 C41.52874423 42.60443154 24.3357454 20.40036081 2.79296875 4.55078125 C1 3 1 3 0 0 Z " fill="#2FBFB9" transform="translate(619,287)"/>
<path d="M0 0 C2.1687632 2.1687632 2.7662688 3.62509224 3.83984375 6.46484375 C4.18080078 7.34720703 4.52175781 8.22957031 4.87304688 9.13867188 C5.58089124 10.99984796 6.28663205 12.86182548 6.99023438 14.72460938 C7.33248047 15.60826172 7.67472656 16.49191406 8.02734375 17.40234375 C8.48741821 18.61651978 8.48741821 18.61651978 8.95678711 19.85522461 C9.88005327 22.0513348 9.88005327 22.0513348 11.56860352 23.56445312 C13.61830032 25.62009311 13.73829096 27.95219606 14.3515625 30.70751953 C15.58694352 35.07507517 17.85201786 38.9604259 20 42.9375 C20.48186768 43.84395264 20.96373535 44.75040527 21.46020508 45.68432617 C26.06158401 54.267913 30.96429248 62.6654125 36 71 C35.01 71.33 34.02 71.66 33 72 C32.70754395 71.4652002 32.41508789 70.93040039 32.11376953 70.37939453 C30.78773736 67.95929377 29.45643889 65.5421301 28.125 63.125 C27.66480469 62.28324219 27.20460938 61.44148437 26.73046875 60.57421875 C26.28574219 59.76855469 25.84101563 58.96289062 25.3828125 58.1328125 C24.97434082 57.38918457 24.56586914 56.64555664 24.14501953 55.87939453 C23.0140901 53.85678395 23.0140901 53.85678395 21 52 C20.31891386 50.74707683 19.68509837 49.46806793 19.08203125 48.17578125 C18.71819336 47.40186035 18.35435547 46.62793945 17.97949219 45.83056641 C17.59438477 44.99960449 17.20927734 44.16864258 16.8125 43.3125 C16.41321289 42.45833496 16.01392578 41.60416992 15.60253906 40.72412109 C14.78697953 38.97877162 13.97301324 37.23267677 13.16064453 35.48583984 C12.12735371 33.27276305 11.08147462 31.06648529 10.02734375 28.86328125 C-0.42054676 6.95813729 -0.42054676 6.95813729 0 0 Z " fill="#30BBB4" transform="translate(251,511)"/>
<path d="M0 0 C4.46854358 -0.22064336 7.56808684 0.34423916 11.67578125 2.08984375 C12.7426416 2.53980713 13.80950195 2.98977051 14.90869141 3.45336914 C16.59357666 4.18801392 16.59357666 4.18801392 18.3125 4.9375 C19.47442871 5.43822021 20.63635742 5.93894043 21.83349609 6.45483398 C36.33923646 12.78664094 49.80908171 20.25042799 63.11376953 28.79492188 C66.39259115 30.889701 69.69703733 32.94357122 73 35 C72.67 35.99 72.34 36.98 72 38 C70.93523437 37.29875 69.87046875 36.5975 68.7734375 35.875 C49.05624752 22.95652573 29.0149924 12.28525184 7.02978516 3.78613281 C4.67909795 2.87571511 2.33788535 1.94277251 0 1 C0 0.67 0 0.34 0 0 Z " fill="#32BFB9" transform="translate(600,168)"/>
<path d="M0 0 C0.66 0.33 1.32 0.66 2 1 C-2.28375513 7.90079325 -6.76282443 14.63753028 -11.38574219 21.3137207 C-14.17811813 25.34710053 -16.9478461 29.39414645 -19.69140625 33.4609375 C-37.53526248 59.88304899 -37.53526248 59.88304899 -44 66 C-44.66 65.67 -45.32 65.34 -46 65 C-45.34 64.34 -44.68 63.68 -44 63 C-43.3574765 60.93125966 -43.3574765 60.93125966 -43 59 C-42.01 59 -41.02 59 -40 59 C-39.77441406 58.484375 -39.54882812 57.96875 -39.31640625 57.4375 C-37.13366491 53.39586619 -34.28718617 49.80967739 -31.54492188 46.1328125 C-29.33382664 43.10676146 -27.74055222 40.67225896 -27 37 C-26.01 37 -25.02 37 -24 37 C-23.74089844 36.28457031 -23.48179687 35.56914063 -23.21484375 34.83203125 C-21.93058419 31.83817858 -20.39438826 29.38010915 -18.5625 26.6875 C-17.85867188 25.64980469 -17.15484375 24.61210938 -16.4296875 23.54296875 C-15.62011831 22.36175523 -14.81019888 21.18078171 -14 20 C-13.04421843 18.6002962 -12.08849158 17.20055503 -11.1328125 15.80078125 C-2.9405384 3.82953839 -2.9405384 3.82953839 0 0 Z " fill="#30BCB5" transform="translate(579,819)"/>
<path d="M0 0 C0.66 0 1.32 0 2 0 C1.49336102 4.25478371 0.9350074 8.48565542 0.24609375 12.71484375 C-2.38413257 29.37294376 -3.07062178 46.04159961 -1.21826172 62.83007812 C-0.95606635 65.4367811 -0.90008978 68.00628462 -0.9375 70.625 C-0.94652344 71.46289062 -0.95554687 72.30078125 -0.96484375 73.1640625 C-0.98224609 74.07285156 -0.98224609 74.07285156 -1 75 C-11.22190037 59.66714945 -5.72239854 26.90013375 -2.51123047 9.96826172 C-1.82233494 6.56125799 -1.10014991 3.30044973 0 0 Z " fill="#30C0B9" transform="translate(336,389)"/>
<path d="M0 0 C3.24228966 2.09562624 4.43656812 3.35959757 5.25 7.125 C10.10406147 24.983793 20.97520712 41.23378763 32.28515625 55.64453125 C34 58 34 58 35 61 C35.66 61 36.32 61 37 61 C37.33 61.99 37.66 62.98 38 64 C37.01 64.495 37.01 64.495 36 65 C22.46318762 49.27244745 0 21.59317637 0 0 Z " fill="#2DBEB7" transform="translate(340,486)"/>
<path d="M0 0 C0.66 0.33 1.32 0.66 2 1 C2.41643051 22.28280232 1.70397513 42.96285967 -2 64 C-2.66 64 -3.32 64 -4 64 C-4.26025568 57.62373595 -3.4737282 51.57534429 -2.53515625 45.26953125 C-1.09783053 34.63857143 -0.78080575 23.89751379 -0.4375 13.1875 C-0.39431641 11.91068359 -0.35113281 10.63386719 -0.30664062 9.31835938 C-0.20194245 6.2123135 -0.09976562 3.10620754 0 0 Z " fill="#34BEB7" transform="translate(788,411)"/>
<path d="M0 0 C0.495 1.485 0.495 1.485 1 3 C-0.34856459 5.53348313 -1.74188638 7.85927137 -3.3125 10.25 C-3.77253418 10.96671875 -4.23256836 11.6834375 -4.70654297 12.421875 C-6.12531934 14.62294015 -7.55959747 16.81303819 -9 19 C-9.39654785 19.60392578 -9.7930957 20.20785156 -10.20166016 20.83007812 C-12.14056207 23.77486392 -14.09884954 26.70583402 -16.0703125 29.62890625 C-18.44810043 33.1597421 -20.78485804 36.71632915 -23.1171875 40.27734375 C-23.8395459 41.37498047 -24.5619043 42.47261719 -25.30615234 43.60351562 C-26.7570298 45.80841018 -28.20276124 48.01670044 -29.64306641 50.22851562 C-30.30741699 51.23462891 -30.97176758 52.24074219 -31.65625 53.27734375 C-32.25244141 54.18734131 -32.84863281 55.09733887 -33.46289062 56.03491211 C-33.97013672 56.68339111 -34.47738281 57.33187012 -35 58 C-35.66 58 -36.32 58 -37 58 C-35.75316925 54.65089942 -34.34757398 51.78502314 -32.33984375 48.83203125 C-31.53232666 47.63429077 -31.53232666 47.63429077 -30.70849609 46.41235352 C-30.12406738 45.55440186 -29.53963867 44.6964502 -28.9375 43.8125 C-27.67723143 41.94348595 -26.41817482 40.07365425 -25.16015625 38.203125 C-24.49000488 37.20732422 -23.81985352 36.21152344 -23.12939453 35.18554688 C-19.33353124 29.50698413 -15.60551344 23.78412088 -11.875 18.0625 C-3.32521016 4.9533571 -3.32521016 4.9533571 0 0 Z " fill="#31BCB5" transform="translate(630,741)"/>
<path d="M0 0 C8.65087631 10.55975512 16.14562468 22.11754943 23.75 33.4375 C24.37052246 34.3553125 24.99104492 35.273125 25.63037109 36.21875 C26.20094238 37.07339844 26.77151367 37.92804687 27.359375 38.80859375 C27.86952148 39.56970459 28.37966797 40.33081543 28.90527344 41.11499023 C30 43 30 43 30 45 C30.66 45 31.32 45 32 45 C33.98 48.63 35.96 52.26 38 56 C33.59714479 53.7985724 32.07488912 51.55770345 29.5625 47.5625 C28.68240129 46.2022106 27.8008161 44.84288211 26.91796875 43.484375 C26.4492334 42.75927734 25.98049805 42.03417969 25.49755859 41.28710938 C22.85499426 37.25131827 20.11006413 33.28591177 17.375 29.3125 C3.04027562 8.40717197 3.04027562 8.40717197 -1 1 C-0.67 0.67 -0.34 0.34 0 0 Z " fill="#2FBBB4" transform="translate(323,638)"/>
<path d="M0 0 C3.46757778 0.57666501 5.0466356 1.71005167 7.4375 4.25 C8.34435547 5.19746094 8.34435547 5.19746094 9.26953125 6.1640625 C9.84058594 6.76992188 10.41164063 7.37578125 11 8 C11.86625 8.86625 12.7325 9.7325 13.625 10.625 C16.08333333 13.08333333 18.54166667 15.54166667 21 18 C21.763125 18.721875 22.52625 19.44375 23.3125 20.1875 C25 22 25 22 25 24 C25.59329102 24.26731934 26.18658203 24.53463867 26.79785156 24.81005859 C29.02933245 26.01584993 30.4664799 27.2358095 32.234375 29.0390625 C32.80800781 29.61914062 33.38164063 30.19921875 33.97265625 30.796875 C34.55917969 31.40015625 35.14570312 32.0034375 35.75 32.625 C36.35199219 33.23601563 36.95398438 33.84703125 37.57421875 34.4765625 C39.05405305 35.97988624 40.52764676 37.48934856 42 39 C41.67 39.99 41.34 40.98 41 42 C39.2925002 40.71937515 37.62626404 39.38232443 36 38 C36 37.34 36 36.68 36 36 C35.34 36 34.68 36 34 36 C32.6184082 34.59936523 32.6184082 34.59936523 30.98828125 32.62109375 C26.63992263 27.50875816 21.94199099 22.79506405 17.1875 18.0625 C16.32962891 17.20076172 15.47175781 16.33902344 14.58789062 15.45117188 C13.76869141 14.63326172 12.94949219 13.81535156 12.10546875 12.97265625 C11.36449951 12.23281494 10.62353027 11.49297363 9.86010742 10.73071289 C8.1059093 8.93551332 8.1059093 8.93551332 6 8 C6 7.34 6 6.68 6 6 C5.34 6 4.68 6 4 6 C1.875 4.125 1.875 4.125 0 2 C0 1.34 0 0.68 0 0 Z " fill="#33C2BB" transform="translate(702,586)"/>
<path d="M0 0 C0.33 0 0.66 0 1 0 C0.69180153 19.10830536 -10.41353902 35.54707975 -23 49 C-25.0238434 51.31414881 -27.01184729 53.65499937 -29 56 C-29.66 55.67 -30.32 55.34 -31 55 C-28.81661227 50.97796998 -26.26247031 48.18832326 -23 45 C-12.86507934 34.84029959 -7.32011266 22.50035207 -3 9 C-2.39697587 7.20794846 -1.79298352 5.41622207 -1.1875 3.625 C-0.795625 2.42875 -0.40375 1.2325 0 0 Z " fill="#2DBFB8" transform="translate(603,446)"/>
<path d="M0 0 C2.71175181 2.47020254 4.52694066 5.20748679 6.4765625 8.3046875 C7.14316895 9.35720703 7.80977539 10.40972656 8.49658203 11.49414062 C9.19895996 12.60982422 9.90133789 13.72550781 10.625 14.875 C16.23028628 23.72389538 21.95680707 32.44201766 28 41 C29.19504613 42.72396008 30.38326326 44.45268752 31.5625 46.1875 C32.03816406 46.88230469 32.51382813 47.57710937 33.00390625 48.29296875 C34 50 34 50 34 52 C30.22546529 50.74182176 29.83011138 49.53679183 27.80859375 46.1796875 C25.30710718 42.11189863 22.76244087 38.09589342 20.09765625 34.1328125 C19.43830078 33.15078857 18.77894531 32.16876465 18.09960938 31.15698242 C17.42736328 30.15642822 16.75511719 29.15587402 16.0625 28.125 C6.80742938 14.2775804 6.80742938 14.2775804 3 8.1875 C2.401875 7.23230469 1.80375 6.27710938 1.1875 5.29296875 C0 3 0 3 0 0 Z " fill="#30BCB4" transform="translate(287,584)"/>
<path d="M0 0 C0.495 1.485 0.495 1.485 1 3 C0.27466064 3.70962891 0.27466064 3.70962891 -0.46533203 4.43359375 C-2.69067783 6.61691174 -4.90784225 8.80836873 -7.125 11 C-8.26582031 12.11568359 -8.26582031 12.11568359 -9.4296875 13.25390625 C-14.11065838 17.89452393 -18.17324499 22.64281361 -22 28 C-23.8747329 30.49562718 -25.77860644 32.96795238 -27.6875 35.4375 C-28.15994141 36.06076172 -28.63238281 36.68402344 -29.11914062 37.32617188 C-32.65645257 41.88548419 -32.65645257 41.88548419 -36 43 C-34.87548273 40.0280615 -33.77706209 37.66559313 -32 35 C-31.67 34.34 -31.34 33.68 -31 33 C-29.88475631 31.88475631 -28.76714104 30.77182498 -27.640625 29.66796875 C-23.14250758 25.09488271 -18.95845269 20.20450616 -14.69921875 15.41015625 C-9.96023928 10.09824317 -5.0959651 4.97099593 0 0 Z " fill="#30BEB7" transform="translate(320,230)"/>
<path d="M0 0 C2.86995311 3.36944347 4.29587249 7.02933587 5.8125 11.125 C11.48956151 25.76296536 20.65886056 37.21510174 32 48 C31.67 48.66 31.34 49.32 31 50 C15.86356628 37.20197149 5.87116045 22.86266443 0 4 C0 2.68 0 1.36 0 0 Z " fill="#2DC0B9" transform="translate(422,453)"/>
<path d="M0 0 C0.6875 1.6875 0.6875 1.6875 1 4 C-0.37947733 6.68998079 -2.04618288 9.06762493 -3.75 11.5625 C-5.1679108 13.81585467 -5.1679108 13.81585467 -4.88500977 15.82714844 C-3.59735685 18.98855836 -1.51749409 20.81709152 0.91015625 23.203125 C1.39705429 23.6857782 1.88395233 24.1684314 2.38560486 24.66571045 C3.9376545 26.2010085 5.49982136 27.72552925 7.0625 29.25 C8.11852357 30.2909722 9.17387038 31.3326314 10.22851562 32.375 C12.81121415 34.92467633 15.40308882 37.46479196 18 40 C17.67 40.99 17.34 41.98 17 43 C8.42 34.42 -0.16 25.84 -9 17 C-7.35848487 12.89621218 -5.61539709 9.46298399 -3.375 5.6875 C-2.74335937 4.61886719 -2.11171875 3.55023438 -1.4609375 2.44921875 C-0.97882812 1.64097656 -0.49671875 0.83273437 0 0 Z " fill="#2FC1B9" transform="translate(636,495)"/>
<path d="M0 0 C0 4.20425367 -2.20979202 6.77972424 -4.4375 10.1875 C-12.21558165 22.37028872 -19.21097967 34.74200834 -25 48 C-26.20614481 44.56316709 -25.84606649 42.90399505 -24.296875 39.6484375 C-23.69975708 38.38386719 -23.69975708 38.38386719 -23.09057617 37.09375 C-22.64818604 36.1965625 -22.2057959 35.299375 -21.75 34.375 C-21.30052002 33.44945312 -20.85104004 32.52390625 -20.38793945 31.5703125 C-17.24589752 25.22227124 -13.8579705 19.05716168 -10.1875 13 C-9.74438477 12.26571777 -9.30126953 11.53143555 -8.84472656 10.77490234 C-6.2689076 6.64450997 -3.58561734 3.29593551 0 0 Z " fill="#30BCB5" transform="translate(283,275)"/>
<path d="M0 0 C3.88818014 3.51396562 6.53648399 7.58138965 9.375 11.9375 C10.42948091 13.53789655 11.48417807 15.13815064 12.5390625 16.73828125 C13.0949707 17.58471191 13.65087891 18.43114258 14.22363281 19.30322266 C17.37762488 24.09142997 20.56617736 28.85660016 23.75 33.625 C24.95326921 35.42959135 26.1564068 37.23427048 27.359375 39.0390625 C28.12459473 40.18689209 28.12459473 40.18689209 28.90527344 41.35791016 C29.2665332 41.8997998 29.62779297 42.44168945 30 43 C28.515 43.495 28.515 43.495 27 44 C26.61577881 43.38576172 26.23155762 42.77152344 25.83569336 42.13867188 C22.2925667 36.51900064 18.66165668 30.97223317 14.94140625 25.46875 C14.50371918 24.81970703 14.0660321 24.17066406 13.61508179 23.50195312 C11.80070271 20.81181655 9.98581885 18.1221158 8.16040039 15.43945312 C6.81025499 13.45340226 5.46887599 11.46167531 4.12890625 9.46875 C3.50563194 8.55941711 3.50563194 8.55941711 2.86976624 7.63171387 C0 3.34104369 0 3.34104369 0 0 Z " fill="#31BEB7" transform="translate(413,772)"/>
<path d="M0 0 C3 0 3 0 4.38696289 1.31713867 C5.1409436 2.26423706 5.1409436 2.26423706 5.91015625 3.23046875 C9.07299484 7.00740229 12.41809867 10.48331536 15.93359375 13.92578125 C16.46014557 14.444216 16.98669739 14.96265076 17.52920532 15.49679565 C19.72437083 17.65642098 21.92311525 19.81220798 24.13061523 21.95922852 C25.75911639 23.54560306 27.37818548 25.14111478 28.99609375 26.73828125 C29.49910507 27.22267166 30.00211639 27.70706207 30.52037048 28.20613098 C31.73833634 29.41490889 32.87691141 30.7025961 34 32 C34 32.99 34 33.98 34 35 C33.34 35 32.68 35 32 35 C30.72827148 33.70263672 30.72827148 33.70263672 29.18359375 31.8046875 C25.90808059 27.95084288 22.44391836 24.3699859 18.84765625 20.8203125 C18.29902924 20.27735535 17.75040222 19.73439819 17.18515015 19.17498779 C14.8930808 16.90999225 12.5968839 14.64926216 10.29663086 12.39257812 C8.60099814 10.7269587 6.91148699 9.05532413 5.22265625 7.3828125 C4.69777115 6.87138702 4.17288605 6.35996155 3.63209534 5.83303833 C2.38304841 4.59282171 1.18597483 3.30066105 0 2 C0 1.34 0 0.68 0 0 Z " fill="#31C2BC" transform="translate(596,596)"/>
<path d="M0 0 C2.56091291 3.2050213 4.43658669 6.57731101 6.375 10.1875 C12.79731608 21.77221481 21.34085959 32.02768665 30 42 C21.79630113 40.38302341 15.25391842 29.49670056 10.8046875 22.88671875 C8.48337024 19.17361603 6.24693334 15.42009512 4.0625 11.625 C3.66023193 10.93446533 3.25796387 10.24393066 2.84350586 9.5324707 C0.86482939 6.01343489 0 4.12117802 0 0 Z " fill="#2DBFB8" transform="translate(385,488)"/>
<path d="M0 0 C0.33 0 0.66 0 1 0 C1 17.49 1 34.98 1 53 C0.67 53 0.34 53 0 53 C-1.97924429 44.31544574 -2.30349506 35.94713734 -2.25 27.0625 C-2.25773438 25.78181641 -2.26546875 24.50113281 -2.2734375 23.18164062 C-2.25729092 15.25770661 -1.58862857 7.76491972 0 0 Z " fill="#2FB8B2" transform="translate(237,400)"/>
<path d="M0 0 C1.0932811 0.00045822 2.18656219 0.00091644 3.31297302 0.00138855 C5.60294696 0.00438948 7.89291926 0.01221023 10.18286133 0.0246582 C13.70466235 0.04307895 17.22620239 0.04516646 20.74804688 0.04492188 C22.97786688 0.04983168 25.20768509 0.05565763 27.4375 0.0625 C28.49465714 0.06361282 29.55181427 0.06472565 30.64100647 0.06587219 C32.09403419 0.07544197 32.09403419 0.07544197 33.57641602 0.08520508 C34.43227798 0.08901688 35.28813995 0.09282867 36.16993713 0.09675598 C38.12109375 0.23046875 38.12109375 0.23046875 39.12109375 1.23046875 C40.63578823 1.4623974 42.15863937 1.64262113 43.68359375 1.79296875 C44.92302734 1.91865234 44.92302734 1.91865234 46.1875 2.046875 C46.82558594 2.10746094 47.46367188 2.16804687 48.12109375 2.23046875 C48.12109375 2.56046875 48.12109375 2.89046875 48.12109375 3.23046875 C44.16109375 3.56046875 40.20109375 3.89046875 36.12109375 4.23046875 C36.12109375 3.57046875 36.12109375 2.91046875 36.12109375 2.23046875 C7.41109375 2.72546875 7.41109375 2.72546875 -21.87890625 3.23046875 C-21.87890625 2.90046875 -21.87890625 2.57046875 -21.87890625 2.23046875 C-14.51216135 0.44319587 -7.56360058 -0.05231142 0 0 Z " fill="#47C9C4" transform="translate(496.87890625,151.76953125)"/>
<path d="M0 0 C2.44391829 2.23134577 3.94303958 4.44082312 5.48828125 7.359375 C5.94485107 8.22111328 6.4014209 9.08285156 6.87182617 9.97070312 C7.34724854 10.88787109 7.8226709 11.80503906 8.3125 12.75 C8.80016846 13.68779297 9.28783691 14.62558594 9.7902832 15.59179688 C20.51725428 36.50680287 20.51725428 36.50680287 20 44 C18 43 18 43 16.9921875 40.40234375 C16.62351562 39.25894531 16.25484375 38.11554688 15.875 36.9375 C12.17818089 25.99109311 6.80834718 15.65846576 0.8125 5.796875 C0 4 0 4 0 0 Z " fill="#32BEB7" transform="translate(752,290)"/>
<path d="M0 0 C1.70884005 1.62339805 3.37446717 3.29319053 5 5 C5 5.66 5 6.32 5 7 C5.66 7 6.32 7 7 7 C7 7.99 7 8.98 7 10 C7.66 10 8.32 10 9 10 C12 13.46153846 12 13.46153846 12 16 C12.66 16 13.32 16 14 16 C15.28535171 17.49514474 16.50373806 19.04820119 17.6875 20.625 C21.12467766 25.04871677 24.6165894 28.52979994 29 32 C27.515 32.495 27.515 32.495 26 33 C15.77221829 24.65032865 6.83713409 14.32501595 0 3 C0 2.01 0 1.02 0 0 Z " fill="#31BDB6" transform="translate(473,860)"/>
<path d="M0 0 C0.84820312 0.51949219 1.69640625 1.03898437 2.5703125 1.57421875 C16.23523402 9.7664857 30.1108098 14.48674379 46 16 C46 16.33 46 16.66 46 17 C34.54085524 19.45553102 22.19021992 15.32461942 12 10 C11.02675781 9.52304687 10.05351562 9.04609375 9.05078125 8.5546875 C1.20707549 4.55751094 1.20707549 4.55751094 0.1875 1.8125 C0.125625 1.214375 0.06375 0.61625 0 0 Z " fill="#32C2BC" transform="translate(458,504)"/>
<path d="M0 0 C0.99 0 1.98 0 3 0 C7.60994469 5.49294405 10.54134474 11.77796906 10 19 C8.86238243 25.04588692 6.9118176 30.23247229 3 35 C1.515 35.495 1.515 35.495 0 36 C0.94978078 34.04482065 1.90339401 32.15196051 3.0703125 30.31640625 C6.75306112 24.19213169 6.90918682 17.9882595 6 11 C4.96537959 8.2152273 3.76962101 6.4462408 2 4 C1.3197633 2.67353844 0.64507739 1.34391123 0 0 Z " fill="#31BDB6" transform="translate(746,630)"/>
<path d="M0 0 C0 4.58949337 -2.31871806 7.9384924 -4.4375 11.9375 C-5.10942383 13.21161743 -5.10942383 13.21161743 -5.79492188 14.51147461 C-9.9901153 22.28895609 -14.71842396 29.71842396 -21 36 C-23.625 36.125 -23.625 36.125 -26 36 C-25.38125 35.9175 -24.7625 35.835 -24.125 35.75 C-21.27993811 34.74586051 -21.30364371 33.68450674 -20 31 C-18.66300111 29.09202061 -17.30624095 27.19783806 -15.9375 25.3125 C-11.66685251 19.32569303 -8.21671704 13.04048611 -4.91967773 6.47387695 C-2.19357129 1.09678564 -2.19357129 1.09678564 0 0 Z " fill="#30BFB9" transform="translate(763,541)"/>
<path d="M0 0 C0.66 0.99 1.32 1.98 2 3 C1.35561283 4.67540664 0.68753301 6.34183216 0 8 C0.1762044 10.03871245 0.1762044 10.03871245 1 12 C1.34417969 13.11955078 1.34417969 13.11955078 1.6953125 14.26171875 C3.37394021 17.78482661 5.83693114 20.16241932 8.625 22.8125 C9.140625 23.31458984 9.65625 23.81667969 10.1875 24.33398438 C11.45159154 25.56296227 12.72488806 26.78246001 14 28 C13.67 28.99 13.34 29.98 13 31 C10.33358842 28.47920828 7.69596601 25.93015564 5.0625 23.375 C4.30775391 22.66214844 3.55300781 21.94929687 2.77539062 21.21484375 C-2.69793664 15.86423682 -2.69793664 15.86423682 -4.125 11.78125 C-3.98868163 8.7481663 -3.41594256 6.83188512 -2.0625 4.125 C-1.68222656 3.34382813 -1.30195312 2.56265625 -0.91015625 1.7578125 C-0.60980469 1.17773438 -0.30945313 0.59765625 0 0 Z " fill="#33C2BB" transform="translate(677,500)"/>
<path d="M0 0 C0.99 0 1.98 0 3 0 C3 0.66 3 1.32 3 2 C3.84691406 2.39832031 3.84691406 2.39832031 4.7109375 2.8046875 C7 4 7 4 9.2265625 5.5078125 C15.18785085 9.52731311 19.8060193 11.29218306 27 10 C30.36878771 8.69280737 30.36878771 8.69280737 33 7 C33.99 6.67 34.98 6.34 36 6 C35.00147198 8.89573124 34.03905844 9.97265909 31.5 11.75 C24.90074494 14.10687681 19.24971508 13.90909795 12.875 10.9375 C8.05184336 8.27407964 3.82184346 4.97130102 0 1 C0 0.67 0 0.34 0 0 Z " fill="#2FBDB6" transform="translate(709,661)"/>
<path d="M0 0 C3.09195033 2.91150798 5.46272131 5.93681086 7.8203125 9.46484375 C8.52027344 10.51220703 9.22023438 11.55957031 9.94140625 12.63867188 C10.66199219 13.72728516 11.38257813 14.81589844 12.125 15.9375 C12.85332031 17.02224609 13.58164062 18.10699219 14.33203125 19.22460938 C15.02941406 20.27326172 15.72679687 21.32191406 16.4453125 22.40234375 C17.07969238 23.35616943 17.71407227 24.30999512 18.36767578 25.29272461 C19.88751593 27.81344064 21.0007223 30.2377154 22 33 C17.7072375 31.56907917 16.50825946 28.34242287 14.3125 24.625 C10.66221249 18.58163388 6.85092596 12.89605228 2.49609375 7.33203125 C0.89785894 4.84078795 0.37787875 2.91432516 0 0 Z " fill="#2FBCB5" transform="translate(370,708)"/>
<path d="M0 0 C5.79750385 -0.17294759 11.12417799 0.26349241 16.8125 1.4375 C29.3970599 3.81353798 42.23224914 3.75304949 55 4 C55 4.33 55 4.66 55 5 C40.51531076 5.28865758 26.14272114 5.53477422 11.75 3.625 C10.78763428 3.49891357 9.82526855 3.37282715 8.83374023 3.24291992 C2.27925487 2.27925487 2.27925487 2.27925487 0 0 Z " fill="#21B1AA" transform="translate(469,606)"/>
<path d="M0 0 C11.22 0 22.44 0 34 0 C34 0.33 34 0.66 34 1 C31.94921875 1.22786458 29.8984375 1.45572917 27.84765625 1.68359375 C25.98859771 1.81886614 25.98859771 1.81886614 25 3 C21.94562625 3.25174572 18.8760158 3.18523241 15.8125 3.1875 C14.53536133 3.20586914 14.53536133 3.20586914 13.23242188 3.22460938 C8.41286845 3.23579163 4.5260963 2.87414462 0 1 C0 0.67 0 0.34 0 0 Z " fill="#30BFB8" transform="translate(496,568)"/>
<path d="M0 0 C9.09060158 1.348269 16.82894747 14.14679786 22 21 C23.02603059 22.65076922 24.03502572 24.31281227 25 26 C24.34 26.33 23.68 26.66 23 27 C22.47792969 26.34515625 21.95585938 25.6903125 21.41796875 25.015625 C16.70362862 19.17017349 11.85119134 13.54176426 6.71948242 8.06152344 C4.30924555 5.47827779 2.05371753 2.87656463 0 0 Z " fill="#32BFB8" transform="translate(707,235)"/>
<path d="M0 0 C3.63879675 1.53652003 5.98214646 3.72420759 8.765625 6.5 C10.09980469 7.8303125 10.09980469 7.8303125 11.4609375 9.1875 C12.84152344 10.5796875 12.84152344 10.5796875 14.25 12 C15.18585937 12.928125 16.12171875 13.85625 17.0859375 14.8125 C17.97023438 15.699375 18.85453125 16.58625 19.765625 17.5 C20.57805664 18.3146875 21.39048828 19.129375 22.22753906 19.96875 C24 22 24 22 24 24 C20.54087986 23.43463843 19.21959343 22.47354501 17.0625 19.75 C13.10360488 14.97501685 8.72674323 10.69537314 4.26782227 6.39355469 C2.80915328 4.96495036 1.39991452 3.48622504 0 2 C0 1.34 0 0.68 0 0 Z " fill="#31C2BB" transform="translate(647,648)"/>
<path d="M0 0 C10.93863235 2.52429977 20.37430306 13.22670892 28 21 C27.67 21.66 27.34 22.32 27 23 C26.55011719 22.59910156 26.10023438 22.19820313 25.63671875 21.78515625 C17.82185792 14.87863596 9.82435505 8.1979315 1.36328125 2.09375 C0.91339844 1.7328125 0.46351563 1.371875 0 1 C0 0.67 0 0.34 0 0 Z " fill="#2BBDB7" transform="translate(555,350)"/>
<path d="M0 0 C1 3 1 3 -0.1081543 5.26489258 C-0.67445557 6.13267334 -1.24075684 7.0004541 -1.82421875 7.89453125 C-2.44103516 8.85037109 -3.05785156 9.80621094 -3.69335938 10.79101562 C-4.68045898 12.28665039 -4.68045898 12.28665039 -5.6875 13.8125 C-6.32623047 14.79798828 -6.96496094 15.78347656 -7.62304688 16.79882812 C-8.85814194 18.70064463 -10.09990943 20.59814873 -11.34912109 22.49072266 C-12.34003997 23.99688417 -13.3205363 25.5100942 -14.27978516 27.03662109 C-15.13670403 28.39059268 -16.0595043 29.7026886 -17 31 C-17.66 31 -18.32 31 -19 31 C-17.55406883 27.00686814 -15.63670432 23.64504101 -13.33984375 20.078125 C-12.62892578 18.97082031 -11.91800781 17.86351562 -11.18554688 16.72265625 C-10.81679443 16.15305176 -10.44804199 15.58344727 -10.06811523 14.99658203 C-8.93361016 13.24399094 -7.80516179 11.48761937 -6.67773438 9.73046875 C-1.15875154 1.15875154 -1.15875154 1.15875154 0 0 Z " fill="#31BDB5" transform="translate(651,709)"/>
<path d="M0 0 C0.33 0 0.66 0 1 0 C1.04898437 0.969375 1.09796875 1.93875 1.1484375 2.9375 C1.54042794 10.1273107 2.09152735 17.23852259 3.0625 24.375 C3.8514447 30.3008513 4.25841816 36.0276692 4 42 C1.69880684 38.54821025 1.3251854 35.69895695 0.875 31.6875 C0.79008301 30.95926025 0.70516602 30.23102051 0.61767578 29.48071289 C-0.39829756 19.68382709 -0.17839143 9.83485681 0 0 Z " fill="#24B8B1" transform="translate(331,422)"/>
<path d="M0 0 C0.66 0 1.32 0 2 0 C3.37962748 1.84201561 4.66768885 3.75283046 5.9140625 5.6875 C6.28856537 6.26459717 6.66306824 6.84169434 7.04891968 7.4362793 C8.24756551 9.28667102 9.43633243 11.14318622 10.625 13 C11.43425461 14.25301853 12.24414237 15.50562839 13.0546875 16.7578125 C15.04383621 19.83382745 17.02417019 22.91540846 19 26 C18.01 26 17.02 26 16 26 C14.31640625 24.0234375 14.31640625 24.0234375 12.5625 21.375 C11.95148438 20.46492187 11.34046875 19.55484375 10.7109375 18.6171875 C10.14632813 17.75351562 9.58171875 16.88984375 9 16 C6.27180084 11.78888313 6.27180084 11.78888313 3 8 C0 2.46153846 0 2.46153846 0 0 Z " fill="#2EBCB5" transform="translate(393,743)"/>
<path d="M0 0 C2.14605215 3.70768831 3.02406339 7.68383067 4 11.8125 C4.33214989 13.19429542 4.665475 14.5758089 5 15.95703125 C5.16258301 16.63064697 5.32516602 17.3042627 5.49267578 17.99829102 C5.9882851 19.95377746 6.55203606 21.89159209 7.1171875 23.828125 C7.92872198 26.74390375 8.181842 28.99960693 8 32 C7.67 31.01 7.34 30.02 7 29 C6.34 29 5.68 29 5 29 C0.42553191 9.65957447 0.42553191 9.65957447 0 0 Z " fill="#24B6B0" transform="translate(238,462)"/>
<path d="M0 0 C6.32309648 0.6847593 10.16911703 7.48954124 14 12 C14.66644531 12.78117187 15.33289063 13.56234375 16.01953125 14.3671875 C19.12432383 18.22091131 19.12432383 18.22091131 20 20 C19.64453125 22.22265625 19.64453125 22.22265625 19 24 C18.45472656 23.24976563 17.90945313 22.49953125 17.34765625 21.7265625 C12.7604822 15.50055191 8.03170599 9.62776789 2.75 3.9609375 C1 2 1 2 0 0 Z " fill="#2CC0B9" transform="translate(608,332)"/>
<path d="M0 0 C0.33 0 0.66 0 1 0 C0.49226501 6.7021019 -1.37155706 12.18948799 -3.9375 18.375 C-4.29779297 19.27605469 -4.65808594 20.17710937 -5.02929688 21.10546875 C-7.72289823 27.72289823 -7.72289823 27.72289823 -10 30 C-11 27 -11 27 -10.21484375 24.86328125 C-9.58255859 23.60064453 -9.58255859 23.60064453 -8.9375 22.3125 C-6.58368099 17.39328274 -4.57696694 12.42240413 -2.6875 7.3125 C-2.28809204 6.23319214 -2.28809204 6.23319214 -1.88061523 5.13208008 C-1.25066742 3.42251706 -0.62487382 1.71142416 0 0 Z " fill="#2EBDB6" transform="translate(775,508)"/>
<path d="M0 0 C1 3 1 3 0.16723633 4.89770508 C-0.27338135 5.59790771 -0.71399902 6.29811035 -1.16796875 7.01953125 C-1.89016602 8.18258789 -1.89016602 8.18258789 -2.62695312 9.36914062 C-3.14193359 10.17544922 -3.65691406 10.98175781 -4.1875 11.8125 C-4.68314453 12.60720703 -5.17878906 13.40191406 -5.68945312 14.22070312 C-8.38752739 18.52978079 -11.15651211 22.78566592 -14 27 C-14.33 26.01 -14.66 25.02 -15 24 C-13.7322439 21.51221509 -12.42422134 19.22624908 -10.9375 16.875 C-10.5257251 16.20718506 -10.1139502 15.53937012 -9.68969727 14.85131836 C-6.57356765 9.82626317 -3.36173081 4.86462223 0 0 Z " fill="#30BDB5" transform="translate(668,682)"/>
<path d="M0 0 C8.80101894 3.11371789 16.10204567 9.86848504 23 16 C22.67 16.99 22.34 17.98 22 19 C21.41734375 18.443125 20.8346875 17.88625 20.234375 17.3125 C14.55302317 12.02419767 8.8482154 7.72779172 2.2734375 3.62890625 C1.52320313 3.09136719 0.77296875 2.55382812 0 2 C0 1.34 0 0.68 0 0 Z " fill="#2DC1BB" transform="translate(584,312)"/>
<path d="M0 0 C6.96926335 6.57958411 11.85701751 15.9932442 15 25 C14.67 25.66 14.34 26.32 14 27 C10.83603963 23.13400587 8.83306044 18.78032856 6.69335938 14.30859375 C5.22037434 11.2838895 3.67652433 8.52587222 1.77734375 5.7421875 C0 3 0 3 0 0 Z " fill="#2DBDB5" transform="translate(585,375)"/>
<path d="M0 0 C3.34474657 4.1685409 4.9267667 8.52549928 6.75 13.5 C7.07871094 14.35464844 7.40742187 15.20929688 7.74609375 16.08984375 C8.05160156 16.91613281 8.35710938 17.74242187 8.671875 18.59375 C8.9512793 19.34333984 9.23068359 20.09292969 9.51855469 20.86523438 C10.06202866 23.27503985 9.78307395 24.6835702 9 27 C6.9162806 24.9162806 6.44242514 23.84092166 5.52734375 21.11328125 C5.26759766 20.33919922 5.00785156 19.56511719 4.74023438 18.76757812 C4.47533203 17.95740234 4.21042969 17.14722656 3.9375 16.3125 C3.66873047 15.52166016 3.39996094 14.73082031 3.12304688 13.91601562 C1.58366195 9.26714992 0.5280369 4.86967365 0 0 Z " fill="#2CBDB7" transform="translate(677,358)"/>
<path d="M0 0 C-2.36555296 1.57703531 -4.25095108 2.60596218 -6.8359375 3.65625 C-7.57070313 3.95660156 -8.30546875 4.25695312 -9.0625 4.56640625 C-9.825625 4.87449219 -10.58875 5.18257812 -11.375 5.5 C-12.13039063 5.80808594 -12.88578125 6.11617187 -13.6640625 6.43359375 C-17.43683875 7.97040645 -21.21551386 9.4922366 -25 11 C-25.66 10.34 -26.32 9.68 -27 9 C-23.63283712 7.48195055 -20.25515189 5.98887643 -16.875 4.5 C-15.92367188 4.07074219 -14.97234375 3.64148438 -13.9921875 3.19921875 C-5.23053496 -0.63400424 -5.23053496 -0.63400424 0 0 Z " fill="#33BFB8" transform="translate(421,169)"/>
<path d="M0 0 C2.0625 0.4375 2.0625 0.4375 4 1 C3.01 1.7734375 3.01 1.7734375 2 2.5625 C-1.14082162 5.11441756 -4.13825218 7.7909801 -7.1328125 10.51171875 C-9 12 -9 12 -12 13 C-13.20882096 15.00016466 -13.20882096 15.00016466 -14 17 C-14.66 16.67 -15.32 16.34 -16 16 C-12.47268341 9.44926919 -6.76879041 5.52921561 -1 1 C-0.67 0.67 -0.34 0.34 0 0 Z " fill="#2DBFB9" transform="translate(341,211)"/>
<path d="M0 0 C2.79328617 2.66583585 5.07407072 5.34962467 7.234375 8.546875 C8.09482422 9.81337891 8.09482422 9.81337891 8.97265625 11.10546875 C9.55917969 11.97816406 10.14570313 12.85085938 10.75 13.75 C11.35199219 14.63816406 11.95398438 15.52632812 12.57421875 16.44140625 C14.05341757 18.62498547 15.52851715 20.81121695 17 23 C16.01 23.33 15.02 23.66 14 24 C11.65544979 20.57002637 9.3263356 17.12984796 7 13.6875 C6.33226562 12.71103516 5.66453125 11.73457031 4.9765625 10.72851562 C4.34492188 9.79072266 3.71328125 8.85292969 3.0625 7.88671875 C2.47597656 7.02264404 1.88945312 6.15856934 1.28515625 5.26831055 C0 3 0 3 0 0 Z " fill="#31BBB4" transform="translate(444,818)"/>
<path d="M0 0 C23.58238484 -0.61916858 23.58238484 -0.61916858 35 3 C35 3.33 35 3.66 35 4 C28.27679236 4.23183475 22.02851519 3.47146615 15.38671875 2.4375 C12.46046603 2.0594835 9.754114 1.92322052 6.8125 2 C3 2 3 2 0 0 Z " fill="#3CCAC7" transform="translate(520,253)"/>
<path d="M0 0 C-4.07211945 3.21277529 -8.52117607 5.63712478 -13.02734375 8.18359375 C-16.05952732 9.93102697 -16.05952732 9.93102697 -18.69140625 12.28515625 C-19.83416016 13.13400391 -19.83416016 13.13400391 -21 14 C-21.99 13.67 -22.98 13.34 -24 13 C-6.11828859 -0.74161074 -6.11828859 -0.74161074 0 0 Z " fill="#2EBEB8" transform="translate(476,347)"/>
<path d="M0 0 C0.59296875 0.20625 1.1859375 0.4125 1.796875 0.625 C1.06082031 1.15609375 0.32476562 1.6871875 -0.43359375 2.234375 C-1.40941406 2.94078125 -2.38523437 3.6471875 -3.390625 4.375 C-4.83501953 5.41914063 -4.83501953 5.41914063 -6.30859375 6.484375 C-9.22575069 8.58264612 -9.22575069 8.58264612 -11.87890625 10.953125 C-13.02939453 11.78070313 -13.02939453 11.78070313 -14.203125 12.625 C-15.193125 12.295 -16.183125 11.965 -17.203125 11.625 C-3.6211971 -0.61637397 -3.6211971 -0.61637397 0 0 Z " fill="#2CC0BA" transform="translate(438.203125,311.375)"/>
<path d="M0 0 C4.25007753 -0.02495303 8.50011481 -0.0429783 12.75024414 -0.05493164 C14.192309 -0.05992148 15.63436891 -0.06671573 17.07641602 -0.07543945 C24.78215673 -0.1208459 32.35149621 -0.08531842 40 1 C40 1.33 40 1.66 40 2 C38.18818595 2.19401633 36.37551468 2.38004375 34.5625 2.5625 C33.04849609 2.71912109 33.04849609 2.71912109 31.50390625 2.87890625 C30.26447266 2.93884766 30.26447266 2.93884766 29 3 C28.67 2.67 28.34 2.34 28 2 C25.9291528 1.8415735 23.85321971 1.74875578 21.77734375 1.68359375 C19.88725586 1.62075195 19.88725586 1.62075195 17.95898438 1.55664062 C16.61849264 1.51682404 15.2779978 1.47711186 13.9375 1.4375 C12.59308477 1.39431958 11.2486834 1.35070544 9.90429688 1.30664062 C6.6029766 1.20014642 3.30157764 1.0981354 0 1 C0 0.67 0 0.34 0 0 Z " fill="#44CFC9" transform="translate(494,291)"/>
<path d="M0 0 C-7.81106183 5.20737456 -16.88858535 5.42933367 -26 5 C-26 4.67 -26 4.34 -26 4 C-22.98173218 3.32135225 -19.9600473 2.65930287 -16.9375 2 C-16.08994141 1.80921875 -15.24238281 1.6184375 -14.36914062 1.421875 C-9.46170986 0.36080889 -5.01991877 -0.21796119 0 0 Z " fill="#34C2BC" transform="translate(568,602)"/>
<path d="M0 0 C0.33 0 0.66 0 1 0 C1.38408795 9.48839486 0.55403863 17.84802826 -2 27 C-2.33 27 -2.66 27 -3 27 C-3.15366997 20.60348741 -2.64846374 14.72301098 -1.5 8.4375 C-1.35691406 7.61958984 -1.21382812 6.80167969 -1.06640625 5.95898438 C-0.71771688 3.97145496 -0.35983915 1.98554104 0 0 Z " fill="#2CBDB6" transform="translate(650,444)"/>
<path d="M0 0 C0.33 0.66 0.66 1.32 1 2 C-0.93352188 4.60714174 -2.87250285 7.21017395 -4.8125 9.8125 C-5.35970703 10.55048828 -5.90691406 11.28847656 -6.47070312 12.04882812 C-7.26831055 13.11713867 -7.26831055 13.11713867 -8.08203125 14.20703125 C-8.56905518 14.8616333 -9.0560791 15.51623535 -9.55786133 16.19067383 C-10.94038507 17.92520633 -12.40004028 19.46644587 -14 21 C-14 13.47752492 -4.86202606 5.46977932 0 0 Z " fill="#2CBDB7" transform="translate(375,314)"/>
<path d="M0 0 C3.48420592 3.1703135 5.86503346 6.73088973 8.25 10.75 C8.79527344 11.65298828 8.79527344 11.65298828 9.3515625 12.57421875 C10.23953297 14.04638031 11.12049158 15.5227674 12 17 C11.34 17.66 10.68 18.32 10 19 C9.52949219 18.25234375 9.05898438 17.5046875 8.57421875 16.734375 C7.95160156 15.74953125 7.32898438 14.7646875 6.6875 13.75 C6.07261719 12.77546875 5.45773437 11.8009375 4.82421875 10.796875 C3.10456277 8.04939745 3.10456277 8.04939745 1.26953125 5.890625 C0 4 0 4 0 0 Z " fill="#30BEB8" transform="translate(739,270)"/>
<path d="M0 0 C1.3077036 2.6154072 0.76582573 3.5640522 0.00390625 6.3515625 C-0.22490234 7.20234375 -0.45371094 8.053125 -0.68945312 8.9296875 C-0.93630859 9.81914062 -1.18316406 10.70859375 -1.4375 11.625 C-1.68048828 12.5221875 -1.92347656 13.419375 -2.17382812 14.34375 C-2.77621451 16.56431158 -3.38518001 18.78285481 -4 21 C-4.33 21 -4.66 21 -5 21 C-5.34684531 13.94747877 -4.58052884 7.62888142 -2 1 C-1.34 0.67 -0.68 0.34 0 0 Z " fill="#33C3BD" transform="translate(380,385)"/>
<path d="M0 0 C4.71437718 1.51271293 9.28958585 3.26772954 13.875 5.125 C14.56335938 5.40214844 15.25171875 5.67929687 15.9609375 5.96484375 C17.64126501 6.64164233 19.32072342 7.32059803 21 8 C21 8.33 21 8.66 21 9 C15.7861163 9.43248805 12.20174713 8.01740857 7.6875 5.625 C7.05521484 5.30789063 6.42292969 4.99078125 5.77148438 4.6640625 C1.14087865 2.28175731 1.14087865 2.28175731 0 0 Z " fill="#2DBCB6" transform="translate(446,553)"/>
<path d="M0 0 C1.19625 0.33 2.3925 0.66 3.625 1 C7 2 7 2 10 4 C4.76884607 4.21544006 0.56214697 3.52370193 -4.4375 2 C-5.67371094 1.62875 -6.90992188 1.2575 -8.18359375 0.875 C-9.11300781 0.58625 -10.04242187 0.2975 -11 0 C-11 -0.33 -11 -0.66 -11 -1 C-6.48349456 -2.0503501 -4.17528419 -1.93488779 0 0 Z " fill="#31BCB6" transform="translate(587,162)"/>
<path d="M0 0 C0.66 0.33 1.32 0.66 2 1 C-0.01158682 3.89165605 -1.32771852 4.06871517 -4.875 4.8125 C-8.40612887 5.15127989 -10.81762375 4.69063738 -14 3 C-14 2.34 -14 1.68 -14 1 C-12.86111328 1.01740234 -12.86111328 1.01740234 -11.69921875 1.03515625 C-10.70535156 1.04417969 -9.71148437 1.05320312 -8.6875 1.0625 C-7.70136719 1.07410156 -6.71523438 1.08570313 -5.69921875 1.09765625 C-2.90036151 1.12329862 -2.90036151 1.12329862 0 0 Z " fill="#34BCB6" transform="translate(520,895)"/>
<path d="M0 0 C0.66 0.33 1.32 0.66 2 1 C1.01 7.93 0.02 14.86 -1 22 C-1.33 22 -1.66 22 -2 22 C-3.29382821 13.94085318 -2.64122886 7.71477583 0 0 Z " fill="#35C5C0" transform="translate(423,402)"/>
<path d="M0 0 C0.33 0 0.66 0 1 0 C1.26065293 4.69879734 0.51329452 7.98768289 -1.3125 12.3125 C-1.95638672 13.88451172 -1.95638672 13.88451172 -2.61328125 15.48828125 C-4 18 -4 18 -7 19 C-5.58632741 14.65328707 -4.02739359 10.3864361 -2.375 6.125 C-1.92898438 4.97257812 -1.48296875 3.82015625 -1.0234375 2.6328125 C-0.68570313 1.76398438 -0.34796875 0.89515625 0 0 Z " fill="#2FBEB8" transform="translate(644,475)"/>
<path d="M0 0 C0.66 0 1.32 0 2 0 C2.62621031 6.88831341 0.35806067 12.58902255 -2 19 C-2.33 19 -2.66 19 -3 19 C-3.45510807 12.32508169 -1.7672426 6.40625443 0 0 Z " fill="#31BEB6" transform="translate(687,467)"/>
<path d="M0 0 C4.16915278 1.38971759 4.69511721 3.49568259 6.75 7.3125 C7.38421875 8.46363281 8.0184375 9.61476563 8.671875 10.80078125 C10 14 10 14 9.703125 16.41796875 C9.47109375 16.94003906 9.2390625 17.46210938 9 18 C7.87159372 15.93930083 6.74721229 13.87656904 5.625 11.8125 C4.99851562 10.66394531 4.37203125 9.51539063 3.7265625 8.33203125 C2.30306245 5.58486938 1.07941553 2.89479619 0 0 Z " fill="#2FBFB8" transform="translate(630,359)"/>
<path d="M0 0 C0.33 0.66 0.66 1.32 1 2 C1.66 2 2.32 2 3 2 C3.97299156 6.85729645 4.12038805 11.4500625 4.0625 16.375 C4.05798828 17.11105469 4.05347656 17.84710938 4.04882812 18.60546875 C4.03715142 20.40368158 4.01922011 22.20185197 4 24 C3.67 24 3.34 24 3 24 C2.01 16.08 1.02 8.16 0 0 Z " fill="#44CFCB" transform="translate(687,391)"/>
<path d="M0 0 C1 3 1 3 -0.43359375 6.13671875 C-1.09135973 7.3260128 -1.75977815 8.50946371 -2.4375 9.6875 C-2.77587891 10.29400391 -3.11425781 10.90050781 -3.46289062 11.52539062 C-4.29957915 13.0220025 -5.14862831 14.51169189 -6 16 C-6.66 16 -7.32 16 -8 16 C-7.43555175 11.65136348 -5.84572036 8.82172345 -3.4375 5.1875 C-2.79683594 4.21167969 -2.15617187 3.23585938 -1.49609375 2.23046875 C-0.75552734 1.12638672 -0.75552734 1.12638672 0 0 Z " fill="#2EBDB7" transform="translate(358,337)"/>
<path d="M0 0 C0 3.88091967 -1.65317733 6.39673296 -3.5 9.6875 C-3.83386719 10.29400391 -4.16773438 10.90050781 -4.51171875 11.52539062 C-5.335537 13.02003231 -6.16703451 14.51043671 -7 16 C-8.17114775 13.14998148 -8.05939414 12.14331623 -6.85546875 9.23828125 C-6.30503906 8.27277344 -5.75460937 7.30726563 -5.1875 6.3125 C-4.64480469 5.33925781 -4.10210937 4.36601562 -3.54296875 3.36328125 C-2 1 -2 1 0 0 Z " fill="#2DBFB8" transform="translate(393,357)"/>
<path d="M0 0 C-6.36363636 5 -6.36363636 5 -11 5 C-11 5.66 -11 6.32 -11 7 C-12.65 7.33 -14.3 7.66 -16 8 C-15 5 -15 5 -12.890625 3.61328125 C-12.01921875 3.18402344 -11.1478125 2.75476563 -10.25 2.3125 C-9.38890625 1.87550781 -8.5278125 1.43851562 -7.640625 0.98828125 C-4.88971748 -0.04127438 -2.90929095 -0.19360389 0 0 Z " fill="#2ABEB9" transform="translate(458,302)"/>
<path d="M0 0 C0.66 0.33 1.32 0.66 2 1 C1.37351562 1.74765625 0.74703125 2.4953125 0.1015625 3.265625 C-0.71570313 4.25046875 -1.53296875 5.2353125 -2.375 6.25 C-3.59316406 7.71179688 -3.59316406 7.71179688 -4.8359375 9.203125 C-6.57851757 11.4552682 -7.876416 13.40711386 -9 16 C-9.40938247 12.12223829 -9.3266519 10.46016439 -7.03125 7.2265625 C-6.1959375 6.36804688 -5.360625 5.50953125 -4.5 4.625 C-3.6646875 3.75101562 -2.829375 2.87703125 -1.96875 1.9765625 C-1.3190625 1.32429688 -0.669375 0.67203125 0 0 Z " fill="#28BEB7" transform="translate(408,336)"/>
<path d="M0 0 C0.53109375 0.24363281 1.0621875 0.48726563 1.609375 0.73828125 C-0.67881646 2.24382759 -2.97083669 3.74285168 -5.265625 5.23828125 C-6.24208984 5.88216797 -6.24208984 5.88216797 -7.23828125 6.5390625 C-12.1640625 9.73828125 -12.1640625 9.73828125 -14.390625 9.73828125 C-14.390625 9.07828125 -14.390625 8.41828125 -14.390625 7.73828125 C-11.90625 5.7578125 -11.90625 5.7578125 -8.640625 3.55078125 C-7.57328125 2.81472656 -6.5059375 2.07867187 -5.40625 1.3203125 C-2.390625 -0.26171875 -2.390625 -0.26171875 0 0 Z " fill="#2FBFB9" transform="translate(422.390625,275.26171875)"/>
<path d="M0 0 C4.13813705 0.53176995 6.27082318 2.77932166 9.25 5.5625 C10.14203125 6.38878906 11.0340625 7.21507812 11.953125 8.06640625 C12.62859375 8.70449219 13.3040625 9.34257812 14 10 C13.01 10.33 12.02 10.66 11 11 C7.33333333 7.33333333 3.66666667 3.66666667 0 0 Z " fill="#32C0BA" transform="translate(693,222)"/>
<path d="M0 0 C-2.119212 1.36405618 -4.24448118 2.71631775 -6.375 4.0625 C-6.97828125 4.45244141 -7.5815625 4.84238281 -8.203125 5.24414062 C-9.76492557 6.22460432 -11.37992214 7.11916075 -13 8 C-13.66 7.67 -14.32 7.34 -15 7 C-11.06592484 2.59383582 -6.13951022 -2.08689492 0 0 Z " fill="#2DBCB5" transform="translate(381,188)"/>
<path d="M0 0 C4.20240011 3.71750779 6.99782679 8.31660979 10 13 C9.01 13 8.02 13 7 13 C5.17578125 10.91796875 5.17578125 10.91796875 3.3125 8.1875 C2.68988281 7.29417969 2.06726563 6.40085937 1.42578125 5.48046875 C0 3 0 3 0 0 Z " fill="#30BCB4" transform="translate(462,844)"/>
<path d="M0 0 C0.66 0 1.32 0 2 0 C1.00147198 2.89573124 0.03905844 3.97265909 -2.5 5.75 C-7.09174888 7.38991031 -11.17722273 7.25734187 -16 7 C-16 6.67 -16 6.34 -16 6 C-13.03 6 -10.06 6 -7 6 C-7 5.34 -7 4.68 -7 4 C-6.030625 3.525625 -5.06125 3.05125 -4.0625 2.5625 C-1.19522563 1.29806053 -1.19522563 1.29806053 0 0 Z " fill="#40C3BE" transform="translate(743,667)"/>
<path d="M0 0 C4.2742558 1.5830577 6.26531794 4.50568404 9 8 C8.01 8.33 7.02 8.66 6 9 C4.99105628 8.07213211 3.99309093 7.13231567 3 6.1875 C2.1646875 5.40439453 2.1646875 5.40439453 1.3125 4.60546875 C0 3 0 3 0 0 Z " fill="#2DC0BA" transform="translate(608,559)"/>
<path d="M0 0 C-0.66 0 -1.32 0 -2 0 C-2 0.66 -2 1.32 -2 2 C-3.76505435 2.86604534 -5.53728074 3.71748642 -7.3125 4.5625 C-8.79169922 5.27599609 -8.79169922 5.27599609 -10.30078125 6.00390625 C-13 7 -13 7 -16 6 C-13.9021477 4.79994469 -11.7979751 3.61497017 -9.6875 2.4375 C-8.79514648 1.92413086 -8.79514648 1.92413086 -7.88476562 1.40039062 C-3.33984375 -1.11328125 -3.33984375 -1.11328125 0 0 Z " fill="#2BBDB6" transform="translate(444,265)"/>
<path d="M0 0 C3.43950364 0.61198376 5.51564485 1.92058847 8.25 4.0625 C8.95640625 4.61035156 9.6628125 5.15820312 10.390625 5.72265625 C11.18726563 6.35494141 11.18726563 6.35494141 12 7 C11.67 7.99 11.34 8.98 11 10 C9.82780457 9.21654285 8.66236332 8.42297164 7.5 7.625 C6.8503125 7.18414063 6.200625 6.74328125 5.53125 6.2890625 C5.0259375 5.86367188 4.520625 5.43828125 4 5 C4 4.34 4 3.68 4 3 C2.68 2.34 1.36 1.68 0 1 C0 0.67 0 0.34 0 0 Z " fill="#2BC0B9" transform="translate(394,568)"/>
<path d="M0 0 C1.62566606 0.47690204 3.25051311 0.95659666 4.875 1.4375 C5.77992188 1.70433594 6.68484375 1.97117187 7.6171875 2.24609375 C10 3 10 3 12 4 C12 4.66 12 5.32 12 6 C10.5608866 5.71640113 9.12374482 5.42278601 7.6875 5.125 C6.88699219 4.96257813 6.08648437 4.80015625 5.26171875 4.6328125 C3 4 3 4 0 2 C0 1.34 0 0.68 0 0 Z " fill="#2EC1BB" transform="translate(439,595)"/>
<path d="M0 0 C0.33 0 0.66 0 1 0 C0.46148032 5.27749285 -0.77343836 9.25645564 -3 14 C-3.66 14 -4.32 14 -5 14 C-4.34580901 8.93001981 -2.1453591 4.58009223 0 0 Z " fill="#2FBCB4" transform="translate(348,355)"/>
<path d="M0 0 C0.66 0 1.32 0 2 0 C2 0.66 2 1.32 2 2 C2.66 2 3.32 2 4 2 C6.625 4.375 6.625 4.375 9 7 C9 7.66 9 8.32 9 9 C5.19902189 8.45700313 3.42542103 6.92723228 1 4 C0.25 1.75 0.25 1.75 0 0 Z " fill="#2EC0BA" transform="translate(655,606)"/>
<path d="M0 0 C0.66 0.33 1.32 0.66 2 1 C-0.75170751 3.9555377 -3.41970299 6.11563315 -7 8 C-7.66 8 -8.32 8 -9 8 C-9 7.01 -9 6.02 -9 5 C-7.54735962 4.1361871 -6.0876837 3.28419546 -4.625 2.4375 C-3.40683594 1.72400391 -3.40683594 1.72400391 -2.1640625 0.99609375 C-1.44992187 0.66738281 -0.73578125 0.33867187 0 0 Z " fill="#31C3BD" transform="translate(561,507)"/>
<path d="M0 0 C4.03520597 1.58962659 8.01811282 3.28232318 12 5 C11.67 5.66 11.34 6.32 11 7 C10.0925 6.690625 9.185 6.38125 8.25 6.0625 C5.83436662 5.2727737 3.47219715 4.57050703 1 4 C0.67 2.68 0.34 1.36 0 0 Z " fill="#30C1BD" transform="translate(587,268)"/>
<path d="M0 0 C1.53668865 0.22467831 3.07968054 0.40796805 4.625 0.5625 C5.44226563 0.64628906 6.25953125 0.73007813 7.1015625 0.81640625 C7.72804688 0.87699219 8.35453125 0.93757812 9 1 C9 1.33 9 1.66 9 2 C3.06 2.495 3.06 2.495 -3 3 C-3 2.34 -3 1.68 -3 1 C-5.64 1 -8.28 1 -11 1 C-11 0.67 -11 0.34 -11 0 C-9.54263913 -0.19491452 -8.08405407 -0.38069358 -6.625 -0.5625 C-5.81289063 -0.66691406 -5.00078125 -0.77132812 -4.1640625 -0.87890625 C-2 -1 -2 -1 0 0 Z " fill="#4CCECB" transform="translate(536,153)"/>
<path d="M0 0 C0.33 0 0.66 0 1 0 C1.19448477 2.12437212 1.38038289 4.24953191 1.5625 6.375 C1.66691406 7.55835938 1.77132812 8.74171875 1.87890625 9.9609375 C2 13 2 13 1 15 C0.34 15 -0.32 15 -1 15 C-0.67 10.05 -0.34 5.1 0 0 Z " fill="#3BCBC7" transform="translate(690,447)"/>
<path d="M0 0 C-3.3 2.31 -6.6 4.62 -10 7 C-10.66 6.67 -11.32 6.34 -12 6 C-4.43243243 -2.21621622 -4.43243243 -2.21621622 0 0 Z " fill="#2BBEB6" transform="translate(363,199)"/>
<path d="M0 0 C2.66660226 4.57131815 4.28377871 9.72977029 3.625 15 C3.41875 15.66 3.2125 16.32 3 17 C2.67 17 2.34 17 2 17 C1.66151348 15.10507994 1.32943089 13.20901534 1 11.3125 C0.814375 10.25675781 0.62875 9.20101563 0.4375 8.11328125 C0.04931926 5.35095938 -0.08259976 2.78257957 0 0 Z " fill="#40C3BD" transform="translate(238,462)"/>
<path d="M0 0 C0.66 0 1.32 0 2 0 C1.43393721 4.69023454 0.81462495 9.34500026 0 14 C-0.33 14 -0.66 14 -1 14 C-2.12029814 8.51053913 -1.79217969 5.16569441 0 0 Z " fill="#39C5BF" transform="translate(336,389)"/>
<path d="M0 0 C0.33 0 0.66 0 1 0 C0.88529863 1.75070517 0.75780972 3.50057536 0.625 5.25 C0.55539063 6.22453125 0.48578125 7.1990625 0.4140625 8.203125 C0.01534751 10.89633189 -0.63507063 12.66963279 -2 15 C-2.05429959 13.25034642 -2.09292823 11.50020213 -2.125 9.75 C-2.15980469 8.28820312 -2.15980469 8.28820312 -2.1953125 6.796875 C-1.99862781 3.9803502 -1.44568916 2.39050964 0 0 Z " fill="#25B7B3" transform="translate(241,375)"/>
<path d="M0 0 C0.33 0 0.66 0 1 0 C1.19644384 1.89492746 1.38177288 3.79100903 1.5625 5.6875 C1.66691406 6.74324219 1.77132813 7.79898437 1.87890625 8.88671875 C1.99277552 11.81426086 1.70848415 14.17131144 1 17 C0.67 17 0.34 17 0 17 C-1.33257403 5.47835991 -1.33257403 5.47835991 0 0 Z " fill="#34C3BD" transform="translate(374,444)"/>
<path d="M0 0 C6.91428571 0.94285714 6.91428571 0.94285714 10 3 C10.33 3.99 10.66 4.98 11 6 C6.95743617 4.77782954 3.50711041 3.37245704 0 1 C0 0.67 0 0.34 0 0 Z " fill="#29C0BA" transform="translate(568,304)"/>
<path d="M0 0 C0 0.33 0 0.66 0 1 C-5.28 1.66 -10.56 2.32 -16 3 C-15.01 2.67 -14.02 2.34 -13 2 C-13 1.34 -13 0.68 -13 0 C-8.38926889 -1.29676812 -4.66159911 -0.71109139 0 0 Z " fill="#3CCAC7" transform="translate(487,254)"/>
<path d="M0 0 C2.56616632 3.84924948 2.55097676 6.4349304 3 11 C2.01 10.67 1.02 10.34 0 10 C0 6.7 0 3.4 0 0 Z " fill="#2ABDB8" transform="translate(602,410)"/>
<path d="M0 0 C0.66 0 1.32 0 2 0 C4.27678571 8.03571429 4.27678571 8.03571429 3 12 C3 11.01 3 10.02 3 9 C2.34 9 1.68 9 1 9 C0.67 6.03 0.34 3.06 0 0 Z " fill="#36BFB8" transform="translate(783,376)"/>
<path d="M0 0 C1 3 1 3 0.07421875 5.04296875 C-0.61220703 6.10451172 -0.61220703 6.10451172 -1.3125 7.1875 C-1.76238281 7.90292969 -2.21226562 8.61835938 -2.67578125 9.35546875 C-3.11277344 9.89816406 -3.54976563 10.44085938 -4 11 C-4.66 11 -5.32 11 -6 11 C-4.54955729 6.89041233 -2.48889248 3.56741255 0 0 Z " fill="#29B9AF" transform="translate(437,376)"/>
<path d="M0 0 C0.66 0.33 1.32 0.66 2 1 C-0.35468455 3.72647685 -2.5408417 4.98756342 -6 6 C-8.16015625 5.546875 -8.16015625 5.546875 -10 5 C-8.38007835 4.13624104 -6.75388139 3.28424146 -5.125 2.4375 C-4.22007812 1.96183594 -3.31515625 1.48617187 -2.3828125 0.99609375 C-1.20332031 0.50302734 -1.20332031 0.50302734 0 0 Z " fill="#28BBB4" transform="translate(573,554)"/>
<path d="M0 0 C2.42130331 2.42130331 2.52840504 3.80111377 3.125 7.125 C3.29257813 8.03507812 3.46015625 8.94515625 3.6328125 9.8828125 C3.81457031 10.93082031 3.81457031 10.93082031 4 12 C1.95780294 10.30820672 1.08206694 9.36272334 0.48828125 6.73828125 C0.43027344 5.93777344 0.37226563 5.13726562 0.3125 4.3125 C0.24675781 3.50425781 0.18101562 2.69601562 0.11328125 1.86328125 C0.07589844 1.24839844 0.03851563 0.63351562 0 0 Z " fill="#2AB4AB" transform="translate(246,495)"/>
<path d="M0 0 C0.66 0.99 1.32 1.98 2 3 C1.06400328 7.16943993 0.62383901 8.58410733 -3 11 C-2.01 7.37 -1.02 3.74 0 0 Z " fill="#37C6C1" transform="translate(681,489)"/>
<path d="M0 0 C0.33 0 0.66 0 1 0 C1.25002209 1.74714233 1.47423194 3.49799141 1.6875 5.25 C1.87892578 6.71179688 1.87892578 6.71179688 2.07421875 8.203125 C1.9871902 11.48272731 1.19219402 12.63310671 -1 15 C-1.09038099 9.84828377 -0.84681133 5.08086796 0 0 Z " fill="#47CBC6" transform="translate(237,391)"/>
<path d="M0 0 C0.33 0.66 0.66 1.32 1 2 C0.67 2.66 0.34 3.32 0 4 C-0.66 4 -1.32 4 -2 4 C-2.268125 4.639375 -2.53625 5.27875 -2.8125 5.9375 C-4 8 -4 8 -7 9 C-5.44499019 5.18315774 -2.96404505 2.80804268 0 0 Z " fill="#2CBBB2" transform="translate(446,366)"/>
<path d="M0 0 C3.12290635 0.48578543 5.99580359 0.9986012 9 2 C9.33 2.99 9.66 3.98 10 5 C6.7 4.01 3.4 3.02 0 2 C0 1.34 0 0.68 0 0 Z " fill="#34C3BD" transform="translate(538,343)"/>
<path d="M0 0 C0.75 1.75 0.75 1.75 1 4 C-0.625 6.25 -0.625 6.25 -3 8 C-5.75 8.25 -5.75 8.25 -8 8 C-7.38125 7.9175 -6.7625 7.835 -6.125 7.75 C-3.84957521 7.20076457 -3.84957521 7.20076457 -2.875 5.125 C-2.58625 4.42375 -2.2975 3.7225 -2 3 C-1.34 2.01 -0.68 1.02 0 0 Z " fill="#36C3BE" transform="translate(745,569)"/>
<path d="M0 0 C0.66 0 1.32 0 2 0 C1.25 7.75 1.25 7.75 -1 10 C-1.125 3.375 -1.125 3.375 0 0 Z " fill="#2DB8B2" transform="translate(245,353)"/>
<path d="M0 0 C1.40907283 2.81814566 0.50872691 4.17277204 -0.4375 7.125 C-0.72496094 8.03507812 -1.01242188 8.94515625 -1.30859375 9.8828125 C-1.53675781 10.58148438 -1.76492187 11.28015625 -2 12 C-2.33 12 -2.66 12 -3 12 C-3.2954439 6.97745369 -2.98514628 4.10457614 0 0 Z " fill="#28B8B0" transform="translate(254,329)"/>
<path d="M0 0 C2 0 2 0 3.625 1.375 C5 3 5 3 5 5 C5.66 5 6.32 5 7 5 C7 5.66 7 6.32 7 7 C5.1875 6.8125 5.1875 6.8125 3 6 C0 1.71428571 0 1.71428571 0 0 Z " fill="#2CBCB7" transform="translate(624,575)"/>
<path d="M0 0 C0.6875 1.6875 0.6875 1.6875 1 4 C-0.3125 6.75 -0.3125 6.75 -2 9 C-2.66 9 -3.32 9 -4 9 C-2.94124926 5.59687262 -1.99097846 2.98646769 0 0 Z " fill="#2BB8B0" transform="translate(756,552)"/>
<path d="M0 0 C2.31 1.98 4.62 3.96 7 6 C6.01 6.33 5.02 6.66 4 7 C2.35 5.02 0.7 3.04 -1 1 C-0.67 0.67 -0.34 0.34 0 0 Z " fill="#30BEB8" transform="translate(696,534)"/>
<path d="M0 0 C0.33 0 0.66 0 1 0 C0.67 2.97 0.34 5.94 0 9 C-0.99 9.33 -1.98 9.66 -3 10 C-2.01 6.7 -1.02 3.4 0 0 Z " fill="#2BBDB5" transform="translate(341,372)"/>
<path d="M0 0 C5.82980769 3.47307692 5.82980769 3.47307692 6.69140625 6.140625 C6.79324219 6.75421875 6.89507813 7.3678125 7 8 C5.8274869 7.04882866 4.66212985 6.08882991 3.5 5.125 C2.8503125 4.59132813 2.200625 4.05765625 1.53125 3.5078125 C1.0259375 3.01023437 0.520625 2.51265625 0 2 C0 1.34 0 0.68 0 0 Z " fill="#25BCB5" transform="translate(639,640)"/>
<path d="M0 0 C0.66 0 1.32 0 2 0 C2 0.66 2 1.32 2 2 C2.66 2 3.32 2 4 2 C4 2.66 4 3.32 4 4 C4.66 4 5.32 4 6 4 C6 4.66 6 5.32 6 6 C3.13275314 5.42655063 2.1385485 5.1385485 0 3 C0 2.01 0 1.02 0 0 Z " fill="#2FBEB9" transform="translate(600,551)"/>
<path d="M0 0 C-0.66 0.66 -1.32 1.32 -2 2 C-4.72869407 1.96712417 -7.2966618 1.43602229 -10 1 C-10 0.67 -10 0.34 -10 0 C-6.30458414 -0.95024979 -3.69541586 -0.95024979 0 0 Z " fill="#36C6C2" transform="translate(540,519)"/>
<path d="M0 0 C0.33 0 0.66 0 1 0 C1.25 5.625 1.25 5.625 -1 9 C-1.66 9 -2.32 9 -3 9 C-2.01 6.03 -1.02 3.06 0 0 Z " fill="#26BAB3" transform="translate(644,475)"/>
<path d="M0 0 C1.31223496 3.93670488 0.24296256 6.12488144 -1 10 C-1.33 10 -1.66 10 -2 10 C-2 7.03 -2 4.06 -2 1 C-1.34 0.67 -0.68 0.34 0 0 Z " fill="#26BCB5" transform="translate(377,396)"/>
<path d="M0 0 C0.66 0.33 1.32 0.66 2 1 C0.35 2.98 -1.3 4.96 -3 7 C-3.99 6.67 -4.98 6.34 -6 6 C-4.02 4.02 -2.04 2.04 0 0 Z " fill="#36C6C1" transform="translate(419,324)"/>
<path d="M0 0 C0 3 0 3 -2.5 5.6875 C-3.325 6.450625 -4.15 7.21375 -5 8 C-5 5 -5 5 -2.5 2.3125 C-1.675 1.549375 -0.85 0.78625 0 0 Z " fill="#31BCB7" transform="translate(290,265)"/>
<path d="M0 0 C0.66 0 1.32 0 2 0 C3.2890625 1.53125 3.2890625 1.53125 4.625 3.5 C5.07101562 4.1496875 5.51703125 4.799375 5.9765625 5.46875 C6.31429687 5.9740625 6.65203125 6.479375 7 7 C3.7972297 6.41767813 3.21687108 6.30981583 1.25 3.5 C0 1 0 1 0 0 Z " fill="#2DBDB6" transform="translate(671,622)"/>
<path d="M0 0 C3.36720387 1.39332574 4.9859524 2.9789286 7 6 C3.75728494 5.4409112 2.06942576 4.5867822 0 2 C0 1.34 0 0.68 0 0 Z " fill="#2BB8B1" transform="translate(713,552)"/>
<path d="M0 0 C0.33 0.99 0.66 1.98 1 3 C1.66 3 2.32 3 3 3 C3.33 5.31 3.66 7.62 4 10 C3.67 9.01 3.34 8.02 3 7 C2.34 7 1.68 7 1 7 C0.67 4.69 0.34 2.38 0 0 Z " fill="#33BBB5" transform="translate(242,484)"/>
<path d="M0 0 C5.875 3.625 5.875 3.625 7 7 C6.01 7.495 6.01 7.495 5 8 C0 2.25 0 2.25 0 0 Z " fill="#29BEB7" transform="translate(732,263)"/>
<path d="M0 0 C-4.625 3 -4.625 3 -8 3 C-8 2.34 -8 1.68 -8 1 C-4.93251126 -0.86240388 -3.40254489 -1.2151946 0 0 Z " fill="#2EBDB6" transform="translate(392,182)"/>
<path d="M0 0 C5.41538462 -0.36923077 5.41538462 -0.36923077 8.375 1.5 C8.91125 1.995 9.4475 2.49 10 3 C3.47692308 3.36923077 3.47692308 3.36923077 1.0625 1.5 C0.5365625 0.7575 0.5365625 0.7575 0 0 Z " fill="#3DC4BD" transform="translate(587,163)"/>
<path d="M0 0 C2.31 0 4.62 0 7 0 C7 0.33 7 0.66 7 1 C4.69 1 2.38 1 0 1 C0 0.67 0 0.34 0 0 Z " fill="#34D2CF" transform="translate(489,255)"/>
<path d="M0 0 C0.33 0 0.66 0 1 0 C1 1.98 1 3.96 1 6 C0.67 6 0.34 6 0 6 C0 4.02 0 2.04 0 0 Z " fill="#32D1CA" transform="translate(689,434)"/>
<path d="M0 0 C1.98 0 3.96 0 6 0 C6 0.33 6 0.66 6 1 C4.02 1 2.04 1 0 1 C0 0.67 0 0.34 0 0 Z " fill="#2ED0CA" transform="translate(507,254)"/>
<path d="M0 0 C0.66 0 1.32 0 2 0 C2 0.66 2 1.32 2 2 C1.34 2 0.68 2 0 2 C0 1.34 0 0.68 0 0 Z " fill="#31CFCA" transform="translate(546,349)"/>
<path d="M0 0 C0.99 0.495 0.99 0.495 2 1 C1.01 1.495 1.01 1.495 0 2 C0 1.34 0 0.68 0 0 Z " fill="#32CFCA" transform="translate(593,549)"/>
<path d="M0 0 C0.99 0.495 0.99 0.495 2 1 C1.01 1.495 1.01 1.495 0 2 C0 1.34 0 0.68 0 0 Z " fill="#2BCDCA" transform="translate(520,342)"/>
<path d="M0 0 C3 1 3 1 3 1 Z " fill="#2FCEC9" transform="translate(576,267)"/>
<path d="M0 0 C0.33 0.66 0.66 1.32 1 2 C0.34 1.67 -0.32 1.34 -1 1 C-0.67 0.67 -0.34 0.34 0 0 Z " fill="#31D0CC" transform="translate(501,254)"/>
<path d="M0 0 C2 1 2 1 2 1 Z " fill="#30C1BA" transform="translate(472,869)"/>
<path d="M0 0 C2 1 2 1 2 1 Z " fill="#2EC6C1" transform="translate(379,727)"/>
<path d="" fill="#30C3BF" transform="translate(0,0)"/>
<path d="M0 0 C2 1 2 1 2 1 Z " fill="#30C7C0" transform="translate(361,701)"/>
<path d="" fill="#33C4BF" transform="translate(0,0)"/>
<path d="" fill="#33CDC8" transform="translate(0,0)"/>
<path d="M0 0 C2 1 2 1 2 1 Z " fill="#33D1CA" transform="translate(688,645)"/>
<path d="M0 0 C2 1 2 1 2 1 Z " fill="#32C2BE" transform="translate(304,621)"/>
<path d="" fill="#32C3BE" transform="translate(0,0)"/>
<path d="M0 0 C2 1 2 1 2 1 Z " fill="#34CCC6" transform="translate(421,584)"/>
<path d="" fill="#31C4BE" transform="translate(0,0)"/>
<path d="M0 0 C2 1 2 1 2 1 Z " fill="#31CFCA" transform="translate(555,565)"/>
<path d="M0 0 C2 1 2 1 2 1 Z " fill="#2FC2BD" transform="translate(265,552)"/>
<path d="" fill="#36C4BF" transform="translate(0,0)"/>
<path d="M0 0 C2 1 2 1 2 1 Z " fill="#32CEC9" transform="translate(676,519)"/>
<path d="" fill="#32CFCB" transform="translate(0,0)"/>
<path d="" fill="#33CFCA" transform="translate(0,0)"/>
<path d="" fill="#31C1BC" transform="translate(0,0)"/>
<path d="" fill="#30C2BB" transform="translate(0,0)"/>
<path d="" fill="#31D1CC" transform="translate(0,0)"/>
<path d="M0 0 C2 1 2 1 2 1 Z " fill="#30CFCA" transform="translate(369,448)"/>
<path d="" fill="#30D2CB" transform="translate(0,0)"/>
<path d="" fill="#32CFCA" transform="translate(0,0)"/>
<path d="" fill="#2FC5BF" transform="translate(0,0)"/>
<path d="" fill="#2FC8C4" transform="translate(0,0)"/>
<path d="" fill="#2FCCC9" transform="translate(0,0)"/>
<path d="" fill="#30CBC8" transform="translate(0,0)"/>
<path d="M0 0 C2 1 2 1 2 1 Z " fill="#32CEC8" transform="translate(672,361)"/>
<path d="" fill="#35C6C2" transform="translate(0,0)"/>
<path d="M0 0 C2 1 2 1 2 1 Z " fill="#31CFCB" transform="translate(564,359)"/>
<path d="" fill="#2FCDCA" transform="translate(0,0)"/>
<path d="M0 0 C2 1 2 1 2 1 Z " fill="#31CFCB" transform="translate(507,342)"/>
<path d="M0 0 C2 1 2 1 2 1 Z " fill="#2ECFCB" transform="translate(501,342)"/>
<path d="" fill="#2FCFC7" transform="translate(0,0)"/>
<path d="M0 0 C2 1 2 1 2 1 Z " fill="#31CFCA" transform="translate(457,296)"/>
<path d="M0 0 C2 1 2 1 2 1 Z " fill="#34D0CB" transform="translate(608,285)"/>
<path d="" fill="#31CECB" transform="translate(0,0)"/>
<path d="M0 0 C2 1 2 1 2 1 Z " fill="#31D2CE" transform="translate(524,255)"/>
<path d="M0 0 C2 1 2 1 2 1 Z " fill="#33D0CF" transform="translate(521,255)"/>
<path d="M0 0 C2 1 2 1 2 1 Z " fill="#2FD0CA" transform="translate(517,254)"/>
<path d="" fill="#31C6C0" transform="translate(0,0)"/>
<path d="M0 0 C2 1 2 1 2 1 Z " fill="#38C9C2" transform="translate(353,200)"/>
<path d="M0 0 C2 1 2 1 2 1 Z " fill="#2FC5BE" transform="translate(657,192)"/>
<path d="M0 0 C2 1 2 1 2 1 Z " fill="#30C2BE" transform="translate(628,176)"/>
<path d="M0 0 C2 1 2 1 2 1 Z " fill="#33C8C0" transform="translate(413,168)"/>
<path d="M0 0 C2 1 2 1 2 1 Z " fill="#32CAC1" transform="translate(588,161)"/>
<path d="M0 0 C2 1 2 1 2 1 Z " fill="#33C8C0" transform="translate(437,160)"/>
<path d="M0 0 C2 1 2 1 2 1 Z " fill="#34C9C4" transform="translate(480,152)"/>
<path d="" fill="#38BBB5" transform="translate(0,0)"/>
<path d="" fill="#37BBB4" transform="translate(0,0)"/>
<path d="" fill="#34BBB3" transform="translate(0,0)"/>
<path d="" fill="#36BDB7" transform="translate(0,0)"/>
<path d="" fill="#34BFB9" transform="translate(0,0)"/>
<path d="" fill="#32C4BB" transform="translate(0,0)"/>
<path d="" fill="#31C4BD" transform="translate(0,0)"/>
<path d="" fill="#32C2BC" transform="translate(0,0)"/>
<path d="" fill="#33C6C1" transform="translate(0,0)"/>
<path d="" fill="#2FC5C1" transform="translate(0,0)"/>
<path d="" fill="#2FC3BF" transform="translate(0,0)"/>
<path d="" fill="#30C6BE" transform="translate(0,0)"/>
<path d="" fill="#32C6C0" transform="translate(0,0)"/>
<path d="" fill="#33C5BD" transform="translate(0,0)"/>
<path d="" fill="#34C7BE" transform="translate(0,0)"/>
<path d="" fill="#35C4C2" transform="translate(0,0)"/>
<path d="" fill="#2FC3BE" transform="translate(0,0)"/>
<path d="" fill="#2DC4BE" transform="translate(0,0)"/>
<path d="" fill="#31C6C0" transform="translate(0,0)"/>
<path d="" fill="#2CC3BD" transform="translate(0,0)"/>
<path d="" fill="#2FC6C0" transform="translate(0,0)"/>
<path d="" fill="#30C3BF" transform="translate(0,0)"/>
<path d="" fill="#30C7C1" transform="translate(0,0)"/>
<path d="" fill="#2FC4BF" transform="translate(0,0)"/>
<path d="" fill="#31C5C1" transform="translate(0,0)"/>
<path d="" fill="#2FC3BE" transform="translate(0,0)"/>
<path d="" fill="#30C2BF" transform="translate(0,0)"/>
<path d="" fill="#34C6C0" transform="translate(0,0)"/>
<path d="" fill="#31C6BF" transform="translate(0,0)"/>
<path d="" fill="#32C4C0" transform="translate(0,0)"/>
<path d="" fill="#34C6BF" transform="translate(0,0)"/>
<path d="" fill="#30C5C1" transform="translate(0,0)"/>
<path d="" fill="#2BC5C0" transform="translate(0,0)"/>
<path d="" fill="#30C4BF" transform="translate(0,0)"/>
<path d="" fill="#31C7C2" transform="translate(0,0)"/>
<path d="" fill="#35C6BF" transform="translate(0,0)"/>
<path d="" fill="#2FC6C2" transform="translate(0,0)"/>
<path d="" fill="#31C6BF" transform="translate(0,0)"/>
<path d="" fill="#30C5BE" transform="translate(0,0)"/>
<path d="" fill="#30C4BF" transform="translate(0,0)"/>
<path d="" fill="#31C5BD" transform="translate(0,0)"/>
<path d="" fill="#32CAC4" transform="translate(0,0)"/>
<path d="" fill="#2FC6C0" transform="translate(0,0)"/>
<path d="" fill="#31C5BF" transform="translate(0,0)"/>
<path d="" fill="#31C6C2" transform="translate(0,0)"/>
<path d="" fill="#31C6BF" transform="translate(0,0)"/>
<path d="" fill="#31C4BD" transform="translate(0,0)"/>
<path d="" fill="#2BC3BC" transform="translate(0,0)"/>
<path d="" fill="#30C4BD" transform="translate(0,0)"/>
<path d="" fill="#32C3BF" transform="translate(0,0)"/>
<path d="" fill="#33C9C4" transform="translate(0,0)"/>
<path d="" fill="#36C9C3" transform="translate(0,0)"/>
<path d="" fill="#2EC6C1" transform="translate(0,0)"/>
<path d="" fill="#35C9C3" transform="translate(0,0)"/>
<path d="" fill="#38C2C3" transform="translate(0,0)"/>
<path d="" fill="#32C7C1" transform="translate(0,0)"/>
<path d="" fill="#31C3BF" transform="translate(0,0)"/>
<path d="" fill="#31C4C0" transform="translate(0,0)"/>
<path d="" fill="#2FC5BF" transform="translate(0,0)"/>
<path d="" fill="#33C4C1" transform="translate(0,0)"/>
<path d="" fill="#32C7C2" transform="translate(0,0)"/>
<path d="" fill="#31CAC3" transform="translate(0,0)"/>
<path d="" fill="#33C7C2" transform="translate(0,0)"/>
<path d="" fill="#31C4BF" transform="translate(0,0)"/>
<path d="" fill="#32C5C2" transform="translate(0,0)"/>
<path d="" fill="#32C4BE" transform="translate(0,0)"/>
<path d="" fill="#37C9C4" transform="translate(0,0)"/>
<path d="" fill="#35C9C2" transform="translate(0,0)"/>
<path d="" fill="#34C9C3" transform="translate(0,0)"/>
<path d="" fill="#33C5C1" transform="translate(0,0)"/>
<path d="" fill="#33CAC4" transform="translate(0,0)"/>
<path d="" fill="#33CCC8" transform="translate(0,0)"/>
<path d="" fill="#33C8C2" transform="translate(0,0)"/>
<path d="" fill="#36CFC9" transform="translate(0,0)"/>
<path d="" fill="#35C4C0" transform="translate(0,0)"/>
<path d="" fill="#32C4BE" transform="translate(0,0)"/>
<path d="" fill="#33C7BE" transform="translate(0,0)"/>
<path d="" fill="#33D0CC" transform="translate(0,0)"/>
<path d="" fill="#32D1CA" transform="translate(0,0)"/>
<path d="" fill="#33D2CE" transform="translate(0,0)"/>
<path d="" fill="#33C7C0" transform="translate(0,0)"/>
<path d="" fill="#33C7C1" transform="translate(0,0)"/>
<path d="" fill="#31C5BF" transform="translate(0,0)"/>
<path d="" fill="#33CECA" transform="translate(0,0)"/>
<path d="" fill="#32C4BF" transform="translate(0,0)"/>
<path d="" fill="#32D0CB" transform="translate(0,0)"/>
<path d="" fill="#32C5BC" transform="translate(0,0)"/>
<path d="" fill="#31C3BD" transform="translate(0,0)"/>
<path d="" fill="#2FCFC9" transform="translate(0,0)"/>
<path d="" fill="#35C5C0" transform="translate(0,0)"/>
<path d="" fill="#35CEC9" transform="translate(0,0)"/>
<path d="" fill="#33CFC9" transform="translate(0,0)"/>
<path d="" fill="#31D0CB" transform="translate(0,0)"/>
<path d="" fill="#31CFC7" transform="translate(0,0)"/>
<path d="" fill="#38C7C2" transform="translate(0,0)"/>
<path d="" fill="#35C6C0" transform="translate(0,0)"/>
<path d="" fill="#33D0CB" transform="translate(0,0)"/>
<path d="" fill="#31C6BE" transform="translate(0,0)"/>
<path d="" fill="#34C5C1" transform="translate(0,0)"/>
<path d="" fill="#30D4CE" transform="translate(0,0)"/>
<path d="" fill="#31D1CA" transform="translate(0,0)"/>
<path d="" fill="#31C6BF" transform="translate(0,0)"/>
<path d="" fill="#33C4BF" transform="translate(0,0)"/>
<path d="" fill="#35CECB" transform="translate(0,0)"/>
<path d="" fill="#33CDC8" transform="translate(0,0)"/>
<path d="" fill="#33CDC7" transform="translate(0,0)"/>
<path d="" fill="#37CFCB" transform="translate(0,0)"/>
<path d="" fill="#35D2CD" transform="translate(0,0)"/>
<path d="" fill="#30C3BC" transform="translate(0,0)"/>
<path d="" fill="#32C1BD" transform="translate(0,0)"/>
<path d="" fill="#34CBC6" transform="translate(0,0)"/>
<path d="" fill="#31D0C9" transform="translate(0,0)"/>
<path d="" fill="#31C1BE" transform="translate(0,0)"/>
<path d="" fill="#33CDC7" transform="translate(0,0)"/>
<path d="" fill="#33D0C9" transform="translate(0,0)"/>
<path d="" fill="#35D1CA" transform="translate(0,0)"/>
<path d="" fill="#30C3BE" transform="translate(0,0)"/>
<path d="" fill="#35C9C4" transform="translate(0,0)"/>
<path d="" fill="#30CDC5" transform="translate(0,0)"/>
<path d="" fill="#2FCECB" transform="translate(0,0)"/>
<path d="" fill="#2FCFCB" transform="translate(0,0)"/>
<path d="" fill="#32CFC9" transform="translate(0,0)"/>
<path d="" fill="#31CFCD" transform="translate(0,0)"/>
<path d="" fill="#37C6C2" transform="translate(0,0)"/>
<path d="" fill="#34CFC9" transform="translate(0,0)"/>
<path d="" fill="#31CFCA" transform="translate(0,0)"/>
<path d="" fill="#37CFCA" transform="translate(0,0)"/>
<path d="" fill="#32CFC8" transform="translate(0,0)"/>
<path d="" fill="#33D1CB" transform="translate(0,0)"/>
<path d="" fill="#2FCECA" transform="translate(0,0)"/>
<path d="" fill="#35D2D0" transform="translate(0,0)"/>
<path d="" fill="#33D1CD" transform="translate(0,0)"/>
<path d="" fill="#30D1C8" transform="translate(0,0)"/>
<path d="" fill="#33C4BF" transform="translate(0,0)"/>
<path d="" fill="#31CFCB" transform="translate(0,0)"/>
<path d="" fill="#35C4C0" transform="translate(0,0)"/>
<path d="" fill="#31CCC8" transform="translate(0,0)"/>
<path d="" fill="#2DCFCA" transform="translate(0,0)"/>
<path d="" fill="#30CDCA" transform="translate(0,0)"/>
<path d="" fill="#35C5BF" transform="translate(0,0)"/>
<path d="" fill="#31D1CA" transform="translate(0,0)"/>
<path d="" fill="#2FCDC7" transform="translate(0,0)"/>
<path d="" fill="#31D1CB" transform="translate(0,0)"/>
<path d="" fill="#32CFC8" transform="translate(0,0)"/>
<path d="" fill="#33D0CC" transform="translate(0,0)"/>
<path d="" fill="#32CDC7" transform="translate(0,0)"/>
<path d="" fill="#2FCBC7" transform="translate(0,0)"/>
<path d="" fill="#32C5BF" transform="translate(0,0)"/>
<path d="" fill="#2FC7C0" transform="translate(0,0)"/>
<path d="" fill="#34C4BE" transform="translate(0,0)"/>
<path d="" fill="#31CAC7" transform="translate(0,0)"/>
<path d="" fill="#33C3BD" transform="translate(0,0)"/>
<path d="" fill="#30CCCA" transform="translate(0,0)"/>
<path d="" fill="#31D1CB" transform="translate(0,0)"/>
<path d="" fill="#37C2BC" transform="translate(0,0)"/>
<path d="" fill="#32CDC8" transform="translate(0,0)"/>
<path d="" fill="#36C9C4" transform="translate(0,0)"/>
<path d="" fill="#31D0C9" transform="translate(0,0)"/>
<path d="" fill="#35CECA" transform="translate(0,0)"/>
<path d="" fill="#31CEC8" transform="translate(0,0)"/>
<path d="" fill="#32CDC6" transform="translate(0,0)"/>
<path d="" fill="#33CDCA" transform="translate(0,0)"/>
<path d="" fill="#31D0CB" transform="translate(0,0)"/>
<path d="" fill="#32CFC9" transform="translate(0,0)"/>
<path d="" fill="#33CCC5" transform="translate(0,0)"/>
<path d="" fill="#34CEC8" transform="translate(0,0)"/>
<path d="" fill="#38C9C2" transform="translate(0,0)"/>
<path d="" fill="#31CFCC" transform="translate(0,0)"/>
<path d="" fill="#32CEC9" transform="translate(0,0)"/>
<path d="" fill="#2FCEC8" transform="translate(0,0)"/>
<path d="" fill="#2FCCC7" transform="translate(0,0)"/>
<path d="" fill="#36CCC3" transform="translate(0,0)"/>
<path d="" fill="#2ECFC9" transform="translate(0,0)"/>
<path d="" fill="#2ECEC7" transform="translate(0,0)"/>
<path d="" fill="#31CEC7" transform="translate(0,0)"/>
<path d="" fill="#2FCCC5" transform="translate(0,0)"/>
<path d="" fill="#31CEC7" transform="translate(0,0)"/>
<path d="" fill="#34C6C0" transform="translate(0,0)"/>
<path d="" fill="#33CECA" transform="translate(0,0)"/>
<path d="" fill="#33CFC9" transform="translate(0,0)"/>
<path d="" fill="#2CCBC5" transform="translate(0,0)"/>
<path d="" fill="#32CFC8" transform="translate(0,0)"/>
<path d="" fill="#31CBC7" transform="translate(0,0)"/>
<path d="" fill="#34CFCA" transform="translate(0,0)"/>
<path d="" fill="#34D0CC" transform="translate(0,0)"/>
<path d="" fill="#33CFC9" transform="translate(0,0)"/>
<path d="" fill="#2FC8C1" transform="translate(0,0)"/>
<path d="" fill="#34C4BE" transform="translate(0,0)"/>
<path d="" fill="#34D0C9" transform="translate(0,0)"/>
<path d="" fill="#32D0C8" transform="translate(0,0)"/>
<path d="" fill="#31CFC8" transform="translate(0,0)"/>
<path d="" fill="#31CFC9" transform="translate(0,0)"/>
<path d="" fill="#35C6C0" transform="translate(0,0)"/>
<path d="" fill="#31C2BD" transform="translate(0,0)"/>
<path d="" fill="#33C3BB" transform="translate(0,0)"/>
<path d="" fill="#31D0CB" transform="translate(0,0)"/>
<path d="" fill="#31CFCA" transform="translate(0,0)"/>
<path d="" fill="#30CEC6" transform="translate(0,0)"/>
<path d="" fill="#33D0C9" transform="translate(0,0)"/>
<path d="" fill="#33C3BE" transform="translate(0,0)"/>
<path d="" fill="#32C8C1" transform="translate(0,0)"/>
<path d="" fill="#35CFCB" transform="translate(0,0)"/>
<path d="" fill="#2ECEC8" transform="translate(0,0)"/>
<path d="" fill="#31CEC9" transform="translate(0,0)"/>
<path d="" fill="#32C5BD" transform="translate(0,0)"/>
<path d="" fill="#32D0C9" transform="translate(0,0)"/>
<path d="" fill="#31D0CC" transform="translate(0,0)"/>
<path d="" fill="#2FCDC7" transform="translate(0,0)"/>
<path d="" fill="#32D1C9" transform="translate(0,0)"/>
<path d="" fill="#31C7C0" transform="translate(0,0)"/>
<path d="" fill="#32CFC9" transform="translate(0,0)"/>
<path d="" fill="#31CFC9" transform="translate(0,0)"/>
<path d="" fill="#35C8C1" transform="translate(0,0)"/>
<path d="" fill="#31D1CC" transform="translate(0,0)"/>
<path d="" fill="#31CDC9" transform="translate(0,0)"/>
<path d="" fill="#35C8C1" transform="translate(0,0)"/>
<path d="" fill="#31CFCA" transform="translate(0,0)"/>
<path d="" fill="#33C6C0" transform="translate(0,0)"/>
<path d="" fill="#32D0CC" transform="translate(0,0)"/>
<path d="" fill="#36C8C1" transform="translate(0,0)"/>
<path d="" fill="#2ECEC7" transform="translate(0,0)"/>
<path d="" fill="#34C8C2" transform="translate(0,0)"/>
<path d="" fill="#34C7BF" transform="translate(0,0)"/>
<path d="" fill="#2BC9C2" transform="translate(0,0)"/>
<path d="" fill="#31CCC9" transform="translate(0,0)"/>
<path d="" fill="#2EC9C5" transform="translate(0,0)"/>
<path d="" fill="#2FCDCA" transform="translate(0,0)"/>
<path d="" fill="#2FCFC8" transform="translate(0,0)"/>
<path d="" fill="#2FCCC7" transform="translate(0,0)"/>
<path d="" fill="#31CBC5" transform="translate(0,0)"/>
<path d="" fill="#30CCC6" transform="translate(0,0)"/>
<path d="" fill="#32CBC4" transform="translate(0,0)"/>
<path d="" fill="#35CAC4" transform="translate(0,0)"/>
<path d="" fill="#2FC7C0" transform="translate(0,0)"/>
<path d="" fill="#31D1CA" transform="translate(0,0)"/>
<path d="" fill="#33C6BF" transform="translate(0,0)"/>
<path d="" fill="#2FCFC7" transform="translate(0,0)"/>
<path d="" fill="#2FC5BF" transform="translate(0,0)"/>
<path d="" fill="#33D1CB" transform="translate(0,0)"/>
<path d="" fill="#33CFC8" transform="translate(0,0)"/>
<path d="" fill="#34C5C1" transform="translate(0,0)"/>
<path d="" fill="#2ECECB" transform="translate(0,0)"/>
<path d="" fill="#39CFCB" transform="translate(0,0)"/>
<path d="" fill="#32C2BD" transform="translate(0,0)"/>
<path d="" fill="#31CECA" transform="translate(0,0)"/>
<path d="" fill="#30CAC9" transform="translate(0,0)"/>
<path d="" fill="#30CDC8" transform="translate(0,0)"/>
<path d="" fill="#31D1CA" transform="translate(0,0)"/>
<path d="" fill="#2FCFC9" transform="translate(0,0)"/>
<path d="" fill="#34D0CB" transform="translate(0,0)"/>
<path d="" fill="#2FCFCC" transform="translate(0,0)"/>
<path d="" fill="#2FD1CC" transform="translate(0,0)"/>
<path d="" fill="#35CDC9" transform="translate(0,0)"/>
<path d="" fill="#33CCCB" transform="translate(0,0)"/>
<path d="" fill="#2FCCC7" transform="translate(0,0)"/>
<path d="" fill="#2FD1CC" transform="translate(0,0)"/>
<path d="" fill="#2ECFC9" transform="translate(0,0)"/>
<path d="" fill="#37C8C2" transform="translate(0,0)"/>
<path d="" fill="#32C3BF" transform="translate(0,0)"/>
<path d="" fill="#30CDC8" transform="translate(0,0)"/>
<path d="" fill="#2ECEC8" transform="translate(0,0)"/>
<path d="" fill="#2FCECA" transform="translate(0,0)"/>
<path d="" fill="#30CEC9" transform="translate(0,0)"/>
<path d="" fill="#32D0CA" transform="translate(0,0)"/>
<path d="" fill="#31CDC7" transform="translate(0,0)"/>
<path d="" fill="#2ECEC6" transform="translate(0,0)"/>
<path d="" fill="#37C8C1" transform="translate(0,0)"/>
<path d="" fill="#2FCCC8" transform="translate(0,0)"/>
<path d="" fill="#31CFC8" transform="translate(0,0)"/>
<path d="" fill="#30CEC9" transform="translate(0,0)"/>
<path d="" fill="#35C4BC" transform="translate(0,0)"/>
<path d="" fill="#2FCCC7" transform="translate(0,0)"/>
<path d="" fill="#31CECA" transform="translate(0,0)"/>
<path d="" fill="#34C2BE" transform="translate(0,0)"/>
<path d="" fill="#30CFC8" transform="translate(0,0)"/>
<path d="" fill="#32CDC9" transform="translate(0,0)"/>
<path d="" fill="#33C3BD" transform="translate(0,0)"/>
<path d="" fill="#31CFCB" transform="translate(0,0)"/>
<path d="" fill="#32CFCA" transform="translate(0,0)"/>
<path d="" fill="#34D0CB" transform="translate(0,0)"/>
<path d="" fill="#32CBC6" transform="translate(0,0)"/>
<path d="" fill="#30CFC8" transform="translate(0,0)"/>
<path d="" fill="#30C6C0" transform="translate(0,0)"/>
<path d="" fill="#31CFC9" transform="translate(0,0)"/>
<path d="" fill="#32CEC8" transform="translate(0,0)"/>
<path d="" fill="#37CEC8" transform="translate(0,0)"/>
<path d="" fill="#32C1BC" transform="translate(0,0)"/>
<path d="" fill="#30CFCA" transform="translate(0,0)"/>
<path d="" fill="#32D1CC" transform="translate(0,0)"/>
<path d="" fill="#34D2C9" transform="translate(0,0)"/>
<path d="" fill="#36C3BF" transform="translate(0,0)"/>
<path d="" fill="#31CFCB" transform="translate(0,0)"/>
<path d="" fill="#2AC1BD" transform="translate(0,0)"/>
<path d="" fill="#33D0CB" transform="translate(0,0)"/>
<path d="" fill="#30C2BC" transform="translate(0,0)"/>
<path d="" fill="#36D3CD" transform="translate(0,0)"/>
<path d="" fill="#2DD0C8" transform="translate(0,0)"/>
<path d="" fill="#33CECA" transform="translate(0,0)"/>
<path d="" fill="#35C6C1" transform="translate(0,0)"/>
<path d="" fill="#33CECD" transform="translate(0,0)"/>
<path d="" fill="#30CFCA" transform="translate(0,0)"/>
<path d="" fill="#35D1CD" transform="translate(0,0)"/>
<path d="" fill="#31CFCA" transform="translate(0,0)"/>
<path d="" fill="#31D0CD" transform="translate(0,0)"/>
<path d="" fill="#2DCDC9" transform="translate(0,0)"/>
<path d="" fill="#30C9C6" transform="translate(0,0)"/>
<path d="" fill="#33CECA" transform="translate(0,0)"/>
<path d="" fill="#30CECB" transform="translate(0,0)"/>
<path d="" fill="#33D1CC" transform="translate(0,0)"/>
<path d="" fill="#33D0CC" transform="translate(0,0)"/>
<path d="" fill="#33D0CB" transform="translate(0,0)"/>
<path d="" fill="#33C6C1" transform="translate(0,0)"/>
<path d="" fill="#2ECFCA" transform="translate(0,0)"/>
<path d="" fill="#2FD1CA" transform="translate(0,0)"/>
<path d="" fill="#2ECFC9" transform="translate(0,0)"/>
<path d="" fill="#33C3BF" transform="translate(0,0)"/>
<path d="" fill="#33C3BF" transform="translate(0,0)"/>
<path d="" fill="#34C5BF" transform="translate(0,0)"/>
<path d="" fill="#31C4BF" transform="translate(0,0)"/>
<path d="" fill="#2EC5C0" transform="translate(0,0)"/>
<path d="" fill="#2DC7C2" transform="translate(0,0)"/>
<path d="" fill="#2FC7C2" transform="translate(0,0)"/>
<path d="" fill="#32C8C2" transform="translate(0,0)"/>
<path d="" fill="#33C6C1" transform="translate(0,0)"/>
<path d="" fill="#2CC4BD" transform="translate(0,0)"/>
<path d="" fill="#2BC4BD" transform="translate(0,0)"/>
<path d="" fill="#2EC5BF" transform="translate(0,0)"/>
<path d="" fill="#35C6BD" transform="translate(0,0)"/>
<path d="" fill="#33C7BF" transform="translate(0,0)"/>
<path d="" fill="#2EC6BD" transform="translate(0,0)"/>
<path d="" fill="#31C6BF" transform="translate(0,0)"/>
<path d="" fill="#33C6C1" transform="translate(0,0)"/>
<path d="" fill="#31C7BF" transform="translate(0,0)"/>
<path d="" fill="#32C6BE" transform="translate(0,0)"/>
<path d="" fill="#2CC4BF" transform="translate(0,0)"/>
<path d="" fill="#32C6C1" transform="translate(0,0)"/>
<path d="" fill="#30C4BD" transform="translate(0,0)"/>
<path d="" fill="#34C8C1" transform="translate(0,0)"/>
<path d="" fill="#35C6C1" transform="translate(0,0)"/>
<path d="" fill="#33CAC7" transform="translate(0,0)"/>
<path d="" fill="#32CAC2" transform="translate(0,0)"/>
<path d="" fill="#31C9C2" transform="translate(0,0)"/>
<path d="" fill="#33CBC3" transform="translate(0,0)"/>
<path d="" fill="#33CBC5" transform="translate(0,0)"/>
</svg>
